<svg width="100" height="100" viewBox="0 0 100 100" fill="none" xmlns="http://www.w3.org/2000/svg">
<g clip-path="url(#clip0)">
<mask id="mask0" mask-type="alpha" maskUnits="userSpaceOnUse" x="0" y="0" width="100" height="100">
<circle cx="50" cy="50" r="50" fill="#C4C4C4"/>
</mask>
<g mask="url(#mask0)">
</g>
<g clip-path="url(#clip1)">
<path d="M128 -32H-28V124H128V-32Z" fill="#F3EFEC"/>
<path d="M128.244 94.4009H-27.7559V123.866H128.244V94.4009Z" fill="#E9E4E0"/>
<path d="M5.29659 82.6382H-4.58445C-4.6672 82.6382 -4.74656 82.6711 -4.80507 82.7296C-4.86358 82.7881 -4.89645 82.8675 -4.89645 82.9502V90.4382C-4.89851 90.9578 -4.79794 91.4727 -4.60051 91.9534C-4.40309 92.434 -4.11269 92.871 -3.74599 93.2391C-3.3793 93.6072 -2.94351 93.8994 -2.46364 94.0987C-1.98377 94.298 -1.46927 94.4006 -0.949655 94.4006H1.66491C2.71166 94.4006 3.71555 93.9848 4.45572 93.2446C5.19588 92.5044 5.61171 91.5006 5.61171 90.4538V82.9658C5.61384 82.9233 5.60724 82.8808 5.59232 82.8409C5.5774 82.801 5.55448 82.7646 5.52496 82.7339C5.49544 82.7032 5.45995 82.6789 5.42067 82.6624C5.3814 82.646 5.33917 82.6377 5.29659 82.6382Z" fill="#C1C1C1"/>
<path d="M4.11102 93.1123C6.34182 91.8643 10.1669 88.139 9.53046 85.5245C9.45501 85.1912 9.30293 84.8801 9.08631 84.6158C8.86968 84.3515 8.59446 84.1413 8.28246 84.0019C6.80358 83.3155 4.68822 84.1454 4.45422 84.2421L5.15622 85.7085C5.6679 85.5026 6.9159 85.1625 7.50246 85.4371C7.5872 85.4784 7.6602 85.5403 7.71473 85.6172C7.76925 85.694 7.80355 85.7834 7.81446 85.877C8.18574 87.3996 5.19366 90.6101 3.1875 91.7426L4.11102 93.1123Z" fill="#C1C1C1"/>
<path d="M1.37562 80.2861C1.41618 80.3641 1.42242 80.258 1.44738 80.1925L1.50354 79.9554C1.53786 79.79 1.56906 79.6215 1.59402 79.4468C1.64142 79.0869 1.66019 78.7239 1.65018 78.361C1.6262 77.5932 1.46232 76.8361 1.16658 76.1271C0.8851 75.4584 0.46997 74.8543 -0.0533428 74.3518C-0.28372 74.1206 -0.535483 73.9116 -0.805262 73.7278L-1.42926 73.3066C-2.14553 72.8181 -2.76537 72.2014 -3.25758 71.4877C-3.45719 71.1954 -3.60886 70.8731 -3.70686 70.533C-3.7696 70.3448 -3.78038 70.1433 -3.73806 69.9495C-3.71481 69.8805 -3.68773 69.8128 -3.65694 69.7467C-3.59887 69.6141 -3.53324 69.4849 -3.46038 69.3598C-3.2939 69.0822 -3.09604 68.8247 -2.8707 68.5923C-2.43894 68.1606 -1.88425 67.8729 -1.28262 67.7686C-0.685884 67.6838 -0.0776696 67.7931 0.452098 68.0806C0.765467 68.2413 1.05959 68.4371 1.32882 68.6641C1.48275 68.7741 1.62681 68.8973 1.75938 69.0322C1.88381 69.1844 2.05301 69.2936 2.24298 69.3442L2.82642 69.4503C4.09938 69.6812 5.26938 68.5143 5.4441 66.817C5.54186 65.9603 5.34607 65.0957 4.88874 64.3647C4.69823 64.0965 4.46285 63.8633 4.19298 63.6752C3.94071 63.485 3.67595 63.312 3.4005 63.1573C2.85999 62.8284 2.28307 62.5635 1.68138 62.3679C0.453456 61.9534 -0.874845 61.9425 -2.10942 62.3367C-3.44162 62.7987 -4.60818 63.643 -5.46342 64.7641C-5.9501 65.397 -6.34892 66.0928 -6.64902 66.8326C-6.81799 67.2442 -6.95668 67.6676 -7.06398 68.0994C-7.1913 68.6238 -7.26139 69.1604 -7.27302 69.6999C-7.28415 70.7227 -7.07116 71.7354 -6.64902 72.667C-6.32895 73.3732 -5.88993 74.019 -5.3511 74.5765C-4.5261 75.4304 -3.53843 76.1104 -2.44638 76.5764L-2.0751 76.7293L-1.89414 76.801L-1.76622 76.8478C-1.59311 76.8975 -1.42657 76.9676 -1.27014 77.0569C-0.943695 77.214 -0.650336 77.4322 -0.405902 77.6996C-0.113982 78.0205 0.119394 78.3901 0.283618 78.7916C0.386979 79.0332 0.474522 79.2812 0.545697 79.5342C0.586257 79.6683 0.623697 79.8056 0.658017 79.9491L0.711056 80.1738C0.736016 80.2611 0.736017 80.311 0.792177 80.5419C0.848337 80.7728 1.01994 80.8726 1.18218 80.8009C1.26729 80.749 1.33259 80.6701 1.36765 80.5768C1.40271 80.4835 1.40551 80.3812 1.37562 80.2861Z" fill="white"/>
<path d="M0.698968 17.2119H-2.62695V33.4983H0.698968V17.2119Z" fill="#E3DFDC"/>
<path d="M4.53652 22.3365L1.26367 22.3228L1.21635 33.6202L4.4892 33.6339L4.53652 22.3365Z" fill="#D3CDC9"/>
<path d="M7.56843 22.8496L5.08008 24.9756L12.4187 33.565L14.9071 31.439L7.56843 22.8496Z" fill="#E3DFDC"/>
<path d="M22.3412 38.1817L-17.498 37.9789L-17.4887 33.8418L22.3506 34.0446L22.3412 38.1817Z" stroke="#E3DFDC" stroke-width="0.936" stroke-miterlimit="10"/>
<path d="M35.8711 30.6812H62.7936V45.6135C62.7936 47.2113 62.1588 48.7437 61.029 49.8736C59.8991 51.0035 58.3667 51.6382 56.7689 51.6382H42.5136C40.7544 51.6382 39.0672 50.9393 37.8232 49.6954C36.5793 48.4514 35.8805 46.7643 35.8805 45.0051V30.6812H35.8711Z" fill="#9A1C27"/>
<path d="M70.3148 72.6419L29.6113 71.9554V67.6249C29.6113 60.555 38.3005 53.9624 46.8462 53.9624H53.264C60.855 53.9624 70.3148 60.6018 70.3148 66.8823V72.6419Z" fill="#383F45"/>
<path d="M52.0105 45.0083H46.8282C46.3256 45.0083 45.8436 45.2077 45.488 45.5628C45.1323 45.9179 44.9321 46.3996 44.9312 46.9021V55.0297C44.9154 55.6291 45.0198 56.2255 45.2383 56.7839C45.4567 57.3422 45.7848 57.8512 46.2031 58.2807C46.6214 58.7101 47.1215 59.0515 47.6739 59.2846C48.2263 59.5177 48.8198 59.6378 49.4194 59.6378C50.0189 59.6378 50.6124 59.5177 51.1648 59.2846C51.7172 59.0515 52.2173 58.7101 52.6356 58.2807C53.0539 57.8512 53.382 57.3422 53.6004 56.7839C53.8189 56.2255 53.9233 55.6291 53.9075 55.0297V46.9021C53.9067 46.3996 53.7064 45.9179 53.3508 45.5628C52.9951 45.2077 52.5131 45.0083 52.0105 45.0083Z" fill="#FBC39D"/>
<path d="M44.9316 53.8999C44.9316 53.8999 45.2967 56.5457 49.4213 56.5457C53.546 56.5457 53.9079 53.8999 53.9079 53.8999H44.9316Z" fill="#F9AC7F"/>
<path d="M62.3158 34.8152C61.7282 34.7922 61.1471 34.9455 60.6472 35.2553C60.1473 35.5651 59.7515 36.0173 59.5106 36.5538C59.2697 37.0903 59.1948 37.6865 59.2954 38.266C59.3961 38.8454 59.6677 39.3815 60.0754 39.8053C60.4831 40.2292 61.0082 40.5214 61.5833 40.6445C62.1583 40.7676 62.7571 40.7159 63.3025 40.496C63.848 40.2762 64.3152 39.8983 64.6442 39.4108C64.9732 38.9233 65.1489 38.3486 65.1488 37.7605C65.163 36.9945 64.8726 36.2541 64.3415 35.7019C63.8104 35.1497 63.0818 34.8308 62.3158 34.8152Z" fill="#F9AC7F"/>
<path d="M36.5345 34.8152C35.9469 34.7922 35.3658 34.9455 34.8659 35.2553C34.366 35.5651 33.9702 36.0173 33.7294 36.5538C33.4885 37.0903 33.4136 37.6865 33.5142 38.266C33.6148 38.8454 33.8865 39.3815 34.2941 39.8053C34.7018 40.2292 35.227 40.5214 35.802 40.6445C36.3771 40.7676 36.9758 40.7159 37.5213 40.496C38.0667 40.2762 38.534 39.8983 38.863 39.4108C39.192 38.9233 39.3677 38.3486 39.3675 37.7605C39.3817 36.9945 39.0914 36.2541 38.5602 35.7019C38.0291 35.1497 37.3006 34.8308 36.5345 34.8152Z" fill="#F9AC7F"/>
<path d="M48.388 54.789L48.3662 54.8108C48.7125 54.842 49.065 54.8608 49.4207 54.8608C50.4652 54.8603 51.5054 54.7261 52.5158 54.4614C52.5146 54.4521 52.5146 54.4426 52.5158 54.4333C57.9976 52.995 62.0567 47.8314 62.0567 41.685V26.2784C62.0567 19.0151 56.3939 20.1726 49.4082 20.1726C42.4226 20.1726 36.7598 19.0151 36.7598 26.2784V41.685C36.7722 48.5864 41.889 54.243 48.388 54.789Z" fill="#FBC39D"/>
<path d="M60.4523 36.6183V40.7773H55.0297C55.0297 40.7773 53.919 37.7789 49.4137 37.7789C44.9084 37.7789 43.7977 40.7773 43.7977 40.7773H38.3845V36.6183C38.3845 34.9803 37.7855 34.4343 36.7715 34.2627V41.6852C36.7715 48.5866 41.8852 54.2432 48.3872 54.7892L48.3654 54.811C48.7117 54.8422 49.0643 54.8609 49.42 54.8609C49.7756 54.8609 50.1251 54.8422 50.4714 54.811L50.4496 54.7892C56.9516 54.2432 62.0684 48.5866 62.0684 41.6852V34.2627C61.0513 34.4561 60.4523 34.9803 60.4523 36.6183Z" fill="#3A0909"/>
<path d="M45.5039 42.5684H53.1198C53.1198 42.5684 52.449 45.5542 49.3165 45.5542C46.1841 45.5542 45.5039 42.5684 45.5039 42.5684Z" fill="#E6E6E6"/>
<path d="M79.2811 89.8892H19.9793C18.761 89.8892 17.7734 90.8767 17.7734 92.095V92.1948C17.7734 93.4131 18.761 94.4007 19.9793 94.4007H79.2811C80.4994 94.4007 81.487 93.4131 81.487 92.1948V92.095C81.487 90.8767 80.4994 89.8892 79.2811 89.8892Z" fill="#C1C1C1"/>
<path d="M73.8563 60.7173H25.0408C23.4779 60.7173 22.2109 61.9842 22.2109 63.5471V91.571C22.2109 93.1338 23.4779 94.4008 25.0408 94.4008H73.8563C75.4192 94.4008 76.6861 93.1338 76.6861 91.571V63.5471C76.6861 61.9842 75.4192 60.7173 73.8563 60.7173Z" fill="#D2D3D5"/>
<path d="M48.7783 81.3685C48.0248 81.3685 47.2883 81.1451 46.6618 80.7265C46.0353 80.3079 45.5471 79.713 45.2587 79.0169C44.9704 78.3208 44.895 77.5548 45.042 76.8158C45.1889 76.0769 45.5518 75.3981 46.0845 74.8653C46.6173 74.3325 47.2961 73.9697 48.0351 73.8227C48.774 73.6757 49.54 73.7512 50.2361 74.0395C50.9322 74.3278 51.5272 74.8161 51.9458 75.4426C52.3644 76.069 52.5878 76.8056 52.5878 77.559C52.5861 78.5689 52.1843 79.5369 51.4702 80.2509C50.7561 80.965 49.7881 81.3669 48.7783 81.3685Z" fill="white"/>
<path d="M49.6693 39.5357H48.9361C48.7319 39.5355 48.5301 39.4919 48.344 39.4079C48.1579 39.3238 47.9919 39.2011 47.8567 39.0481C47.7216 38.895 47.6206 38.7149 47.5603 38.5198C47.5001 38.3247 47.4819 38.1191 47.5071 37.9165L47.8721 34.9868C47.919 34.641 48.0896 34.324 48.3524 34.0945C48.6151 33.865 48.9522 33.7386 49.3011 33.7388C49.6502 33.738 49.9876 33.8641 50.2505 34.0938C50.5134 34.3234 50.6839 34.6408 50.7301 34.9868L51.0951 37.9165C51.1208 38.1189 51.1031 38.3245 51.0432 38.5196C50.9833 38.7147 50.8826 38.8948 50.7477 39.0479C50.6128 39.2011 50.4469 39.3238 50.261 39.4079C50.075 39.492 49.8733 39.5356 49.6693 39.5357Z" fill="#F9AC7F"/>
<path d="M50.3659 14.2544H47.7077C47.1184 14.2544 46.6406 14.7321 46.6406 15.3214V15.3745C46.6406 15.9638 47.1184 16.4415 47.7077 16.4415H50.3659C50.9552 16.4415 51.4329 15.9638 51.4329 15.3745V15.3214C51.4329 14.7321 50.9552 14.2544 50.3659 14.2544Z" fill="#952C1B"/>
<path d="M35.8711 30.6813L62.7967 30.6657V27.4865C62.7963 25.9347 62.4901 24.3983 61.8957 22.9649C61.3014 21.5315 60.4304 20.2293 59.3325 19.1326C58.2347 18.0359 56.9316 17.1663 55.4975 16.5734C54.0635 15.9805 52.5268 15.676 50.975 15.6772H47.6803C46.1287 15.6781 44.5924 15.9845 43.1592 16.579C41.726 17.1736 40.4239 18.0446 39.3273 19.1423C38.2308 20.2401 37.3611 21.5431 36.7681 22.9769C36.1751 24.4107 35.8703 25.9473 35.8711 27.4989V30.6813Z" fill="#DB3A40"/>
<path d="M48.0289 22.6533H50.2691C51.2381 22.6533 52.1674 23.0382 52.8525 23.7234C53.5377 24.4086 53.9226 25.3379 53.9226 26.3068V28.8403H44.3848V26.3193C44.3831 25.8393 44.4761 25.3636 44.6584 24.9195C44.8407 24.4754 45.1087 24.0716 45.4472 23.7311C45.7856 23.3907 46.1878 23.1202 46.6308 22.9353C47.0738 22.7504 47.5489 22.6545 48.0289 22.6533Z" fill="#3A0909"/>
<path d="M44.5494 26.8779H53.9531V30.0385H44.5494C44.342 30.0389 44.1365 29.9983 43.9448 29.9192C43.7531 29.84 43.5789 29.7237 43.4322 29.577C43.2855 29.4303 43.1692 29.2561 43.09 29.0644C43.0108 28.8727 42.9703 28.6672 42.9707 28.4598C42.9703 28.2522 43.0108 28.0466 43.09 27.8547C43.1691 27.6628 43.2854 27.4884 43.432 27.3414C43.5786 27.1945 43.7528 27.0779 43.9446 26.9984C44.1363 26.9189 44.3418 26.8779 44.5494 26.8779Z" fill="#EF818A"/>
<path d="M46.0783 28.5281C46.0765 28.6807 46.0294 28.8292 45.943 28.955C45.8566 29.0807 45.7349 29.178 45.5932 29.2345C45.4515 29.291 45.2962 29.3042 45.1471 29.2724C44.9979 29.2406 44.8615 29.1652 44.7551 29.0558C44.6488 28.9464 44.5774 28.808 44.5498 28.6579C44.5222 28.5079 44.5398 28.3531 44.6003 28.213C44.6608 28.073 44.7615 27.9541 44.8897 27.8713C45.0178 27.7886 45.1676 27.7457 45.3202 27.7481C45.5238 27.7522 45.7175 27.8364 45.8594 27.9824C46.0014 28.1285 46.08 28.3245 46.0783 28.5281Z" fill="#FF553C"/>
<path d="M46.0783 28.5281C46.0765 28.6807 46.0294 28.8292 45.943 28.955C45.8566 29.0807 45.7349 29.178 45.5932 29.2345C45.4515 29.291 45.2962 29.3042 45.1471 29.2724C44.9979 29.2406 44.8615 29.1652 44.7551 29.0558C44.6488 28.9464 44.5774 28.808 44.5498 28.6579C44.5222 28.5079 44.5398 28.3531 44.6003 28.213C44.6608 28.073 44.7615 27.9541 44.8897 27.8713C45.0178 27.7886 45.1676 27.7457 45.3202 27.7481C45.5238 27.7522 45.7175 27.8364 45.8594 27.9824C46.0014 28.1285 46.08 28.3245 46.0783 28.5281Z" fill="#DB3A40"/>
<path d="M48.5916 29.2727C49.0095 29.2018 49.2908 28.8055 49.2199 28.3876C49.149 27.9697 48.7527 27.6884 48.3348 27.7593C47.9169 27.8302 47.6356 28.2265 47.7065 28.6444C47.7774 29.0623 48.1737 29.3436 48.5916 29.2727Z" fill="#DB3A40"/>
<path d="M52.3847 28.5283C52.3847 28.6801 52.3396 28.8285 52.2553 28.9547C52.171 29.0809 52.0511 29.1793 51.9108 29.2374C51.7706 29.2955 51.6163 29.3107 51.4674 29.281C51.3185 29.2514 51.1818 29.1783 51.0744 29.071C50.9671 28.9636 50.894 28.8269 50.8644 28.678C50.8347 28.5291 50.8499 28.3748 50.908 28.2345C50.9661 28.0943 51.0645 27.9744 51.1907 27.8901C51.3169 27.8058 51.4653 27.7607 51.6171 27.7607C51.8204 27.7616 52.0152 27.8427 52.1589 27.9865C52.3027 28.1302 52.3838 28.325 52.3847 28.5283Z" fill="#DB3A40"/>
<path d="M44.4533 33.7169C44.4533 33.9483 44.3847 34.1745 44.2561 34.3669C44.1275 34.5593 43.9448 34.7093 43.731 34.7978C43.5172 34.8864 43.282 34.9095 43.055 34.8644C42.8281 34.8192 42.6196 34.7078 42.456 34.5442C42.2923 34.3806 42.1809 34.1721 42.1358 33.9451C42.0906 33.7182 42.1138 33.4829 42.2023 33.2691C42.2909 33.0553 42.4409 32.8726 42.6333 32.7441C42.8257 32.6155 43.0519 32.5469 43.2833 32.5469C43.5936 32.5469 43.8912 32.6701 44.1106 32.8896C44.33 33.109 44.4533 33.4066 44.4533 33.7169Z" fill="#111110"/>
<path d="M56.0783 33.7169C56.0783 33.9483 56.0097 34.1745 55.8811 34.3669C55.7525 34.5593 55.5698 34.7093 55.356 34.7978C55.1422 34.8864 54.907 34.9095 54.68 34.8644C54.4531 34.8192 54.2446 34.7078 54.081 34.5442C53.9173 34.3806 53.8059 34.1721 53.7608 33.9451C53.7156 33.7182 53.7388 33.4829 53.8273 33.2691C53.9159 33.0553 54.0659 32.8726 54.2583 32.7441C54.4507 32.6155 54.6769 32.5469 54.9083 32.5469C55.2186 32.5469 55.5162 32.6701 55.7356 32.8896C55.955 33.109 56.0783 33.4066 56.0783 33.7169Z" fill="#111110"/>
<path d="M53.9529 26.8715C53.9529 26.8715 56.2523 25.4862 56.0776 23.1774L53.1136 24.0198L53.7376 21.4614L51.1074 24.1602L53.9529 26.8715Z" fill="#3A0909"/>
<path d="M2.8766 6.45095C9.46067 6.45095 14.7981 1.1135 14.7981 -5.47057C14.7981 -12.0546 9.46067 -17.3921 2.8766 -17.3921C-3.70748 -17.3921 -9.04492 -12.0546 -9.04492 -5.47057C-9.04492 1.1135 -3.70748 6.45095 2.8766 6.45095Z" fill="#F4F4F4"/>
<path d="M2.88839 -16.2812C0.780457 -16.2812 -1.28014 -15.6562 -3.03283 -14.4851C-4.78552 -13.314 -6.15157 -11.6494 -6.95824 -9.70194C-7.76491 -7.75446 -7.97598 -5.61151 -7.56474 -3.54407C-7.1535 -1.47664 -6.13843 0.422422 -4.64789 1.91296C-3.15736 3.4035 -1.2583 4.41856 0.809136 4.8298C2.87657 5.24104 5.01952 5.02998 6.967 4.2233C8.91448 3.41663 10.579 2.05058 11.7501 0.297894C12.9212 -1.45479 13.5463 -3.51539 13.5463 -5.62333C13.543 -8.44897 12.4191 -11.1579 10.421 -13.156C8.423 -15.154 5.71404 -16.2779 2.88839 -16.2812Z" fill="#F4F4F4"/>
<path d="M2.88876 6.75067C0.440684 6.75067 -1.95241 6.02469 -3.98788 4.66454C-6.02334 3.3044 -7.60973 1.37119 -8.54643 -0.890604C-9.48312 -3.1524 -9.72805 -5.64116 -9.25023 -8.04216C-8.7724 -10.4432 -7.59329 -12.6485 -5.86202 -14.3794C-4.13075 -16.1102 -1.92508 -17.2888 0.476037 -17.766C2.87715 -18.2432 5.36586 -17.9976 7.62741 -17.0604C9.88897 -16.1231 11.8218 -14.5362 13.1814 -12.5004C14.541 -10.4646 15.2664 -8.07133 15.2658 -5.62325C15.2625 -2.34196 13.9573 0.803949 11.6368 3.12388C9.3163 5.44382 6.17006 6.74819 2.88876 6.75067ZM2.88876 -16.2812C0.780827 -16.2812 -1.27977 -15.6561 -3.03246 -14.485C-4.78514 -13.3139 -6.1512 -11.6493 -6.95787 -9.70186C-7.76454 -7.75438 -7.9756 -5.61143 -7.56437 -3.54399C-7.15313 -1.47656 -6.13806 0.422501 -4.64752 1.91304C-3.15699 3.40357 -1.25793 4.41864 0.809507 4.82988C2.87694 5.24112 5.01989 5.03005 6.96737 4.22338C8.91485 3.41671 10.5794 2.05066 11.7505 0.297972C12.9216 -1.45471 13.5467 -3.51531 13.5467 -5.62325C13.5434 -8.44889 12.4194 -11.1579 10.4214 -13.1559C8.42337 -15.1539 5.71441 -16.2779 2.88876 -16.2812Z" fill="#E3DFDC" stroke="#E3DFDC" stroke-width="0.57408" stroke-miterlimit="10"/>
<path d="M102.161 84.064H99.9453V69.4968C99.9453 69.203 100.062 68.9213 100.27 68.7136C100.477 68.5059 100.759 68.3892 101.053 68.3892C101.347 68.3892 101.628 68.5059 101.836 68.7136C102.044 68.9213 102.161 69.203 102.161 69.4968V84.064Z" fill="white"/>
<path d="M98.6722 88.3294H96.457V73.7497C96.457 73.4559 96.5737 73.1742 96.7814 72.9665C96.9892 72.7588 97.2709 72.6421 97.5646 72.6421C97.8587 72.6421 98.1407 72.7587 98.3489 72.9663C98.5571 73.1739 98.6745 73.4556 98.6754 73.7497L98.6722 88.3294Z" fill="white"/>
<path d="M106.975 79.79H94.8223V94.4572H106.975V79.79Z" fill="#C1C1C1"/>
<path d="M108.303 77.0288H93.627V79.7869H108.303V77.0288Z" fill="#AAAAAA"/>
<path d="M112.043 -6.36572H77.6074V35.1428H112.043V-6.36572Z" fill="#F4F4F4"/>
<path d="M112.043 -6.36572H77.6074V35.1428H112.043V-6.36572Z" stroke="#E3DFDC" stroke-width="1.42896" stroke-miterlimit="10"/>
<path d="M106.014 -0.106934H83.0039V29.0276H106.014V-0.106934Z" fill="#E3DFDC"/>
<path d="M87.1294 14.9124C86.9914 14.7728 86.9141 14.5845 86.9141 14.3882C86.9141 14.192 86.9914 14.0036 87.1294 13.8641L90.8079 10.1856C90.9416 10.0463 91.1242 9.96459 91.3172 9.95774C91.5101 9.95089 91.6981 10.0195 91.8414 10.1489C91.9846 10.2783 92.0718 10.4585 92.0845 10.6511C92.0971 10.8438 92.0343 11.0338 91.9092 11.1809C91.8942 11.2 91.8775 11.2178 91.8593 11.2339L88.6894 14.3882L91.8437 17.5425C91.9814 17.6816 92.0587 17.8694 92.0587 18.0651C92.0587 18.2609 91.9814 18.4487 91.8437 18.5877C91.7042 18.7284 91.5146 18.8081 91.3164 18.8093C91.2177 18.8096 91.1199 18.7902 91.0288 18.7522C90.9377 18.7141 90.8552 18.6582 90.786 18.5877L87.1294 14.9124ZM97.1602 17.5425L100.324 14.3882L97.1727 11.2339C97.0459 11.0913 96.9785 10.9056 96.9845 10.7149C96.9906 10.5242 97.0694 10.3431 97.2049 10.2087C97.3404 10.0744 97.5223 9.99718 97.713 9.99287C97.9038 9.98856 98.0889 10.0575 98.2303 10.1856L101.903 13.8641C102.041 14.0036 102.118 14.192 102.118 14.3882C102.118 14.5845 102.041 14.7728 101.903 14.9124L98.2241 18.5877C98.0849 18.7271 97.8969 18.8066 97.6999 18.8093C97.5538 18.8079 97.4113 18.7637 97.29 18.6823C97.1687 18.6009 97.0738 18.4858 97.0171 18.3512C96.9604 18.2165 96.9443 18.0682 96.9708 17.9245C96.9974 17.7808 97.0654 17.6481 97.1664 17.5425H97.1602ZM92.658 18.4442L94.5768 10.0015C94.6207 9.80911 94.7392 9.64203 94.9062 9.537C95.0733 9.43197 95.2752 9.39761 95.4676 9.44146C95.66 9.48532 95.827 9.6038 95.9321 9.77085C96.0371 9.9379 96.0715 10.1398 96.0276 10.3322L94.0995 18.7749C94.0619 18.9403 93.9691 19.0878 93.8363 19.1933C93.7036 19.2988 93.5389 19.3559 93.3694 19.3553C93.3133 19.3584 93.257 19.3584 93.2009 19.3553C93.0087 19.3107 92.842 19.1917 92.7373 19.0245C92.6326 18.8572 92.5985 18.6553 92.6424 18.4629C92.6424 18.4629 92.6487 18.4505 92.6518 18.4442H92.658Z" fill="#F3EFEC"/>
</g>
</g>
<defs>
<clipPath id="clip0">
<rect width="100" height="100" rx="50" fill="white"/>
</clipPath>
<clipPath id="clip1">
<rect width="156" height="156" fill="white" transform="translate(-28 -32)"/>
</clipPath>
</defs>
</svg>
