<svg width="646" height="405" viewBox="0 0 646 405" fill="none" xmlns="http://www.w3.org/2000/svg">
<g clip-path="url(#clip0)">
<rect width="646" height="405" rx="37" fill="white"/>
<path d="M605.736 333.567H36.7173C36.7173 333.567 36.2258 328.87 36.0803 321.282C35.9988 316.861 36.0274 311.456 36.3448 305.432C36.3735 304.941 36.3999 304.441 36.4308 303.94C36.5961 301.179 36.8209 298.291 37.1206 295.318C37.1493 295.056 37.1757 294.789 37.2044 294.525C37.535 291.415 37.9428 288.186 38.4519 284.864C38.8685 282.169 39.3467 279.409 39.9066 276.606C39.944 276.409 39.9837 276.211 40.0234 276.015C40.3121 274.587 40.6229 273.15 40.9535 271.704C41.0813 271.137 41.2158 270.569 41.3502 269.998C41.6147 268.896 41.8924 267.765 42.1834 266.648C42.8901 263.901 43.6821 261.14 44.5594 258.365C44.6475 258.085 44.7379 257.798 44.826 257.512C45.2257 256.277 45.6415 255.039 46.0735 253.798C46.7348 251.911 47.4386 250.025 48.185 248.14C48.6501 246.959 49.1394 245.782 49.6419 244.6C54.4137 233.441 60.8055 222.516 69.3396 212.736C88.8897 190.33 119.676 173.92 168.002 174.401C177.716 174.496 186.737 174.242 195.167 173.685H195.181C197.742 173.516 200.248 173.318 202.701 173.092H202.725C258.532 167.95 286.506 148.818 311.93 130.152L314.661 128.144C323.554 121.594 332.245 115.169 341.835 109.496C344.287 108.041 346.808 106.641 349.397 105.295C365.295 97.0538 384.106 91.0697 410.103 89.7803C412.574 89.6539 415.051 89.6701 417.52 89.8288C418.441 89.8861 419.351 89.9677 420.253 90.0669C430.361 91.1689 439.3 94.7726 446.792 100.463C466.285 115.27 475.969 144.238 470.9 180.403C467.468 204.894 475.22 218.174 488.499 226.853C525.257 250.889 604.349 239.698 605.736 333.567Z" fill="#F8FBFF"/>
<path d="M330.636 239.848V228.667H328.013V209.439H313.958V228.667H300.817V197.336H286.314V217.673H283.008V193.393H268.508V238.918H250.168V265.466H243.313V253.648H227.574V260.637H218.537V229.344H207.374V252.506H196.21V337.378H207.374H216.941H218.537H227.574H232.683H240.864H243.313H250.168H256.603H268.508H272.153H279.404H283.008H286.314H293.905H299.074H300.817H313.958H327.779H328.013H330.636H341.835V239.848H330.636Z" fill="#E7F1FB"/>
<path d="M488.028 278.283V337.376H347.303V285.951H358.089V271.918H368.878V290.879H377.613V286.643H392.821V293.804H399.444V277.719H417.167V250.135H431.181V264.847H434.376V252.524H448.39V271.508H461.087V259.857H474.673V271.508H477.206V278.283H488.028Z" fill="#E7F1FB"/>
<path d="M197.638 255.116V337.078H69.3418V265.755H79.1763V246.291H89.0109V272.587H96.9719V266.711H110.84V276.645H116.877V254.335H133.035V216.08H145.81V236.483H148.723V219.39H161.498V245.72H173.078V229.562H185.463V245.72H187.771V255.116H197.638Z" fill="#E7F1FB"/>
<path d="M349.395 105.294V336.84H341.846V109.495C344.292 108.041 346.808 106.64 349.395 105.294Z" fill="#DEEDFF"/>
<path d="M202.725 173.09V333.568V336.841H195.167V333.568V173.685L202.725 173.09Z" fill="#DEEDFF"/>
<path d="M314.661 128.144V146.145C314.661 148.41 314.088 150.257 313.387 150.257H313.204C312.503 150.257 311.93 148.41 311.93 146.145V130.152L314.661 128.144Z" fill="#F99746"/>
<path d="M312.585 142.995C302.635 142.995 294.571 151.524 294.571 162.044H330.605C330.605 151.524 322.534 142.995 312.585 142.995Z" fill="#F99746"/>
<path d="M314.019 143.229C313.5 143.113 312.969 143.055 312.437 143.055C305.955 143.055 300.7 151.558 300.7 162.045H303.865C303.865 152.424 308.287 144.479 314.019 143.229Z" fill="#FFB278"/>
<path d="M420.253 90.0667V141.792C420.253 142.246 420.253 142.691 420.235 143.114C420.138 147.147 419.609 150.249 418.974 150.249H418.794C418.207 150.249 417.709 147.579 417.564 143.976C417.551 143.678 417.54 143.374 417.535 143.066C417.535 143.043 417.535 143.024 417.535 142.999C417.526 142.603 417.522 142.197 417.522 141.783V89.8286C418.441 89.8859 419.351 89.9675 420.253 90.0667Z" fill="#F99746"/>
<path d="M418.175 142.995C408.225 142.995 400.161 151.524 400.161 162.044H436.191C436.191 151.524 428.124 142.995 418.175 142.995Z" fill="#F99746"/>
<path d="M419.609 143.229C419.09 143.113 418.559 143.055 418.027 143.055C411.545 143.055 406.29 151.558 406.29 162.045H409.455C409.455 152.424 413.876 144.479 419.609 143.229Z" fill="#FFB278"/>
<path d="M605.736 337.127H488.028V337.16H446.792V100.463C466.285 115.493 475.969 144.906 470.9 181.615C467.468 206.481 475.22 219.965 488.499 228.782C525.257 253.183 604.349 241.823 605.736 337.127Z" fill="#DEEDFF"/>
<path d="M533.046 309.166C533.046 309.166 528.503 303.876 532.766 300.5C532.766 300.5 535.878 298.615 538.417 298.767C538.417 298.767 534.82 304.8 535.993 305.399C537.165 305.999 539.519 298.39 539.519 298.39C539.519 298.39 546.605 297.703 548.884 298.798C548.884 298.798 542.828 303.755 544.104 304.05C545.38 304.346 551.922 299.479 551.922 299.479C551.922 299.479 558.514 300.603 558.163 304.626C557.813 308.648 555.538 309.889 554.54 309.783C553.542 309.677 547.707 307.445 547.573 308.265C547.438 309.084 550.963 311.756 553.425 311.881C553.425 311.881 548.776 317.008 545.686 315.529C542.596 314.05 542.334 311.703 540.396 310.823C538.459 309.944 536.826 309.942 537.622 310.843C538.417 311.745 541.902 312.607 543.004 314.562C544.106 316.517 545.093 317.824 541.902 317.341C538.71 316.858 533.511 314.522 533.282 311.844L533.046 309.166Z" fill="#82B378"/>
<path d="M554.91 304.734C554.91 304.734 537 304.044 533.046 309.166C533.046 309.166 532.164 311.785 529.48 314.169L529.059 315.313C529.059 315.313 532.162 312.042 533.273 311.844C533.273 311.844 531.536 305.499 554.91 304.734Z" fill="#82B378"/>
<path d="M529.48 314.169C529.48 314.169 525.633 317.013 525.367 322.093L526.065 322.155C526.065 322.155 527.293 316.903 529.513 314.848C531.732 312.794 529.48 314.169 529.48 314.169Z" fill="#82B378"/>
<path d="M517.163 302.501C517.163 302.501 524.388 298.455 521.018 292.962C521.018 292.962 518.32 289.592 515.429 288.724C515.429 288.724 516.972 296.914 515.429 297.099C513.886 297.284 514.369 287.842 514.369 287.842C514.369 287.842 506.758 284.181 503.771 284.47C503.771 284.47 508.492 292.466 506.952 292.272C505.411 292.078 500.119 283.987 500.119 283.987C500.119 283.987 492.308 282.561 491.061 287.19C489.813 291.818 491.832 294.126 492.989 294.414C494.146 294.703 501.563 294.606 501.365 295.572C501.166 296.537 496.161 298.075 493.366 297.209C493.366 297.209 496.452 304.82 500.496 304.434C504.541 304.048 505.786 301.545 508.301 301.348C510.816 301.152 512.636 301.831 511.386 302.506C510.137 303.18 505.894 302.726 503.871 304.447C501.847 306.169 500.21 307.227 503.968 307.996C507.725 308.765 514.468 308.287 515.817 305.395L517.163 302.501Z" fill="#A8D29F"/>
<path d="M494.62 288.626C494.62 288.626 514.851 295.179 517.163 302.512C517.163 302.512 517.066 305.787 519.09 309.545V310.989C519.09 310.989 516.972 306.076 515.814 305.402C515.814 305.391 520.344 299.032 494.62 288.626Z" fill="#82B378"/>
<path d="M519.09 309.534C519.09 309.534 522.211 314.271 520.432 320.039L519.63 319.819C519.63 319.819 520.408 313.466 518.777 310.273C517.146 307.079 519.09 309.534 519.09 309.534Z" fill="#82B378"/>
<path d="M528.66 296.921C528.66 296.921 519.134 291.587 523.58 284.358C523.58 284.358 527.135 279.912 530.945 278.768C530.945 278.768 528.913 289.568 530.945 289.817C532.978 290.066 532.343 277.626 532.343 277.626C532.343 277.626 542.376 272.799 546.312 273.181C546.312 273.181 540.088 283.723 542.124 283.467C544.161 283.211 551.141 272.546 551.141 272.546C551.141 272.546 561.428 270.642 563.078 276.734C564.729 282.826 562.062 285.876 560.539 286.257C559.016 286.639 549.237 286.511 549.49 287.78C549.744 289.05 556.349 291.087 560.032 289.94C560.032 289.94 555.968 299.973 550.634 299.464C545.3 298.955 543.65 295.656 540.348 295.402C537.046 295.149 534.633 296.037 536.284 296.925C537.934 297.813 543.522 297.216 546.189 299.484C548.856 301.752 551.016 303.147 546.061 304.163C541.106 305.179 532.219 304.545 530.441 300.736L528.66 296.921Z" fill="#A8D29F"/>
<path d="M558.377 278.633C558.377 278.633 531.708 287.269 528.66 296.927C528.66 296.927 528.786 301.245 526.119 306.197V308.102C526.119 308.102 528.913 301.626 530.436 300.738C530.436 300.731 524.468 292.349 558.377 278.633Z" fill="#82B378"/>
<path d="M526.119 306.191C526.119 306.191 522.006 312.437 524.355 320.039L525.413 319.754C525.413 319.754 524.386 311.379 526.537 307.169C528.689 302.959 526.119 306.191 526.119 306.191Z" fill="#82B378"/>
<path d="M528.338 336.526C530.788 336.526 533.214 336.043 535.477 335.105C537.741 334.168 539.798 332.793 541.53 331.061C543.263 329.328 544.637 327.272 545.575 325.008C546.512 322.744 546.995 320.318 546.995 317.868H509.68C509.68 322.816 511.646 327.562 515.145 331.061C518.644 334.56 523.389 336.526 528.338 336.526Z" fill="#F1A34F"/>
<path d="M532.938 336.382C530.313 336.709 527.648 336.475 525.121 335.694C522.593 334.913 520.26 333.604 518.277 331.853C516.294 330.103 514.705 327.951 513.617 325.539C512.529 323.128 511.965 320.514 511.964 317.868H516.592C516.592 322.416 518.253 326.808 521.263 330.217C524.273 333.626 528.425 335.819 532.938 336.382V336.382Z" fill="#FFB973"/>
<path d="M547.264 337.475H509.422C509.422 336.865 509.665 336.279 510.096 335.848C510.528 335.416 511.113 335.174 511.723 335.174H544.952C545.562 335.174 546.147 335.416 546.579 335.848C547.01 336.279 547.253 336.865 547.253 337.475H547.264Z" fill="#F1A34F"/>
<path d="M547.421 317.868H509.068V318.441H547.421V317.868Z" fill="#D86713"/>
<path d="M449.911 279.01C450.248 270.786 450.98 263.636 451.855 258.649C453.248 250.699 454.5 246.123 454.517 246.086C454.7 245.387 457.354 242.559 463.252 242.645C469.15 242.731 468.59 246.443 468.59 246.443C468.591 246.553 468.577 246.664 468.548 246.771C468.491 246.963 463.078 266.325 463.311 291.324C463.311 291.677 463.356 292.283 463.329 292.686C463.329 292.686 449.664 293.034 449.664 292.686C449.183 290.495 449.415 284.436 449.911 279.01Z" fill="#D1A586"/>
<path d="M448.192 291.192C448.192 291.54 448.381 291.818 448.61 291.818C448.831 291.818 449.018 291.533 449.023 291.192H460.735C460.735 291.54 460.925 291.818 461.152 291.818C461.383 291.818 461.566 291.525 461.564 291.172C461.509 284.58 461.834 277.991 462.536 271.437C464.092 256.727 466.97 246.897 467.012 246.751C467.04 246.643 467.054 246.532 467.054 246.421C467.054 246.421 467.614 242.711 461.716 242.623C455.818 242.535 453.164 245.365 452.981 246.064C452.97 246.101 452.26 248.691 451.315 253.337C451.002 254.88 450.665 256.643 450.316 258.627C449.435 263.615 448.712 270.769 448.375 278.988C447.89 284.436 447.716 289.008 448.192 291.192Z" fill="#E5BD9E"/>
<path d="M448.192 291.192C448.192 291.54 448.381 291.818 448.61 291.818C448.831 291.818 449.018 291.534 449.023 291.192H460.735C460.735 291.54 460.925 291.818 461.152 291.818C461.383 291.818 461.566 291.525 461.564 291.172C461.509 284.581 461.834 277.991 462.536 271.437C460.598 262.103 453.113 254.964 451.315 253.364C451.002 254.907 450.665 256.67 450.316 258.654C449.435 263.641 448.712 270.796 448.375 279.015C447.89 284.437 447.716 289.008 448.192 291.192Z" fill="#DFB697"/>
<path d="M459.997 291.073L459.964 291.048C459.964 291.048 459.946 291.048 459.944 290.991C459.947 290.947 459.941 290.902 459.925 290.86C459.91 290.818 459.885 290.78 459.854 290.749C459.483 290.372 458.066 290.387 456.268 290.407C454.308 290.429 451.859 290.455 449.435 290.037C448.176 289.816 449.025 280.266 449.92 271.331C450.07 269.814 450.191 268.615 450.244 267.91C450.826 260.308 454.189 246.817 454.222 246.711C454.37 246.143 456.393 244.036 460.779 244.106C462.439 244.13 463.614 244.547 464.273 245.316C464.472 245.546 464.623 245.815 464.716 246.105C464.809 246.395 464.842 246.701 464.813 247.005C464.814 247.091 464.803 247.177 464.78 247.26C464.762 247.333 461.729 264.783 461.235 268.97C460.418 275.878 460.094 290.16 460.078 290.958V291.029L459.997 291.073ZM457.381 290.266C458.692 290.266 459.616 290.325 459.94 290.654C459.94 290.323 459.962 289.708 459.995 288.547C460.032 287.18 460.098 285.047 460.195 282.64C460.363 278.428 460.656 272.636 461.09 268.953C461.599 264.661 464.616 247.273 464.641 247.218C464.66 247.146 464.669 247.072 464.669 246.998C464.694 246.711 464.661 246.423 464.574 246.149C464.486 245.875 464.345 245.621 464.158 245.402C463.525 244.655 462.395 244.265 460.766 244.241C456.453 244.186 454.482 246.2 454.339 246.749C454.306 246.875 450.949 260.306 450.372 267.923C450.317 268.629 450.198 269.828 450.045 271.346C449.45 277.297 448.21 289.691 449.45 289.907C451.875 290.325 454.299 290.297 456.259 290.277C456.655 290.275 457.032 290.275 457.381 290.275V290.266Z" fill="#D1A586"/>
<path d="M462.441 291.818H416.519C416.519 291.818 417.588 287.551 444.182 288.185C463.003 288.635 462.441 291.818 462.441 291.818Z" fill="#E5BD9E"/>
<path d="M466.177 336.404C460.854 309.819 462.222 293.504 462.229 293.297C462.242 292.889 461.477 292.517 461.065 292.504C460.653 292.49 458.813 292.382 458.599 292.724C458.321 293.182 457.248 313.284 465.185 336.395L466.177 336.404Z" fill="#D1A586"/>
<path d="M423.301 336.404C428.626 309.819 427.258 293.504 427.251 293.297C427.238 292.889 428.002 292.517 428.412 292.504C428.822 292.49 430.667 292.382 430.881 292.724C431.159 293.182 432.232 313.284 424.295 336.395L423.301 336.404Z" fill="#D1A586"/>
<path d="M414.8 336.404C420.125 309.819 418.767 293.504 418.75 293.297C418.736 292.889 419.501 292.517 419.911 292.504C420.321 292.49 422.166 292.382 422.38 292.724C422.657 293.182 423.731 313.284 415.794 336.395L414.8 336.404Z" fill="#A0795F"/>
<path d="M457.622 336.404C452.3 309.819 453.668 293.504 453.675 293.297C453.688 292.889 452.923 292.517 452.511 292.504C452.099 292.49 450.259 292.382 450.045 292.724C449.767 293.182 448.694 313.284 456.628 336.395L457.622 336.404Z" fill="#A0795F"/>
<path d="M416.486 293.18H462.419C462.935 293.18 463.354 292.761 463.354 292.245V291.648C463.354 291.132 462.935 290.713 462.419 290.713H416.486C415.97 290.713 415.552 291.132 415.552 291.648V292.245C415.552 292.761 415.97 293.18 416.486 293.18Z" fill="#D1A586"/>
<path d="M276.12 278.212C276.459 269.877 277.191 262.625 278.064 257.569C279.459 249.509 280.709 244.872 280.729 244.823C280.912 244.113 283.565 241.246 289.463 241.334C295.362 241.422 294.802 245.185 294.802 245.185C294.803 245.297 294.788 245.409 294.758 245.517C294.703 245.711 289.287 265.354 289.523 290.687C289.523 291.042 289.565 291.657 289.541 292.067C289.541 292.067 275.875 292.42 275.875 292.067C275.393 289.852 275.626 283.714 276.12 278.212Z" fill="#D1A586"/>
<path d="M274.401 290.562C274.401 290.914 274.591 291.199 274.818 291.199C275.038 291.199 275.226 290.91 275.228 290.562H286.94C286.94 290.914 287.132 291.199 287.359 291.199C287.59 291.199 287.775 290.901 287.773 290.537C287.718 283.854 288.042 277.173 288.743 270.527C290.301 255.616 293.18 245.649 293.219 245.513C293.25 245.404 293.264 245.291 293.264 245.178C293.264 245.178 293.821 241.415 287.925 241.327C282.029 241.239 279.374 244.106 279.191 244.816C279.191 244.854 278.468 247.479 277.524 252.2C277.211 253.765 276.863 255.557 276.526 257.562C275.644 262.618 274.921 269.87 274.582 278.206C274.101 283.714 273.927 288.346 274.401 290.562Z" fill="#E5BD9E"/>
<path d="M274.401 290.562C274.401 290.915 274.591 291.199 274.818 291.199C275.038 291.199 275.226 290.91 275.228 290.562H286.94C286.94 290.915 287.132 291.199 287.359 291.199C287.59 291.199 287.775 290.901 287.773 290.538C287.718 283.854 288.042 277.174 288.743 270.527C286.808 261.065 279.323 253.827 277.524 252.2C277.211 253.765 276.863 255.557 276.526 257.563C275.644 262.619 274.921 269.87 274.582 278.206C274.101 283.714 273.927 288.347 274.401 290.562Z" fill="#DFB697"/>
<path d="M286.208 290.44L286.175 290.418C286.164 290.418 286.158 290.405 286.153 290.358C286.156 290.313 286.149 290.267 286.133 290.224C286.116 290.181 286.091 290.142 286.059 290.109C285.686 289.73 284.271 289.746 282.477 289.765C280.515 289.787 278.069 289.816 275.644 289.391C274.388 289.17 275.237 279.488 276.129 270.436C276.281 268.893 276.4 267.679 276.455 266.964C277.035 259.299 280.401 245.585 280.423 245.473C280.573 244.895 282.594 242.759 286.982 242.828C288.631 242.852 289.801 243.269 290.465 244.04C290.667 244.277 290.82 244.551 290.915 244.848C291.01 245.145 291.044 245.458 291.016 245.768C291.017 245.855 291.006 245.942 290.982 246.026C290.965 246.099 287.932 263.788 287.438 268.036C286.621 275.027 286.294 289.523 286.281 290.327V290.398L286.208 290.44ZM283.592 289.613C284.899 289.613 285.823 289.675 286.149 290.008C286.149 289.673 286.171 289.049 286.204 287.872C286.244 286.488 286.31 284.324 286.405 281.884C286.574 277.614 286.865 271.745 287.302 267.998C287.809 263.658 290.828 246.019 290.85 245.958C290.87 245.886 290.88 245.812 290.879 245.737C290.904 245.444 290.87 245.149 290.781 244.869C290.691 244.589 290.547 244.33 290.357 244.106C289.722 243.359 288.593 242.967 286.978 242.942H286.779C282.607 242.942 280.692 244.937 280.551 245.486C280.518 245.612 277.161 259.237 276.583 266.951H276.515H276.583C276.528 267.67 276.409 268.886 276.257 270.427C275.662 276.462 274.421 289.023 275.662 289.239C278.086 289.664 280.511 289.635 282.47 289.613C282.867 289.627 283.244 289.613 283.592 289.613Z" fill="#D1A586"/>
<path d="M288.65 291.199H242.731C242.731 291.199 243.8 286.87 270.394 287.516C289.215 287.972 288.65 291.199 288.65 291.199Z" fill="#E5BD9E"/>
<path d="M292.388 336.4C287.064 309.446 288.434 292.907 288.441 292.698C288.454 292.283 287.689 291.906 287.277 291.893C286.865 291.88 285.023 291.77 284.811 292.125C284.531 292.59 283.46 312.968 291.394 336.4H292.388Z" fill="#D1A586"/>
<path d="M249.513 336.4C254.838 309.45 253.462 292.907 253.462 292.7C253.449 292.285 254.214 291.908 254.624 291.895C255.034 291.882 256.879 291.772 257.09 292.127C257.37 292.592 258.441 312.97 250.507 336.402L249.513 336.4Z" fill="#D1A586"/>
<path d="M241.017 336.4C246.342 309.446 244.984 292.907 244.964 292.698C244.951 292.283 245.716 291.906 246.128 291.893C246.54 291.88 248.383 291.77 248.594 292.125C248.874 292.59 249.945 312.968 242.011 336.4H241.017Z" fill="#A0795F"/>
<path d="M283.834 336.4C278.509 309.446 279.867 292.907 279.887 292.698C279.9 292.283 279.135 291.906 278.723 291.893C278.311 291.88 276.468 291.77 276.257 292.125C275.977 292.59 274.906 312.968 282.84 336.4H283.834Z" fill="#A0795F"/>
<path d="M242.702 292.58H288.622C289.142 292.58 289.563 292.159 289.563 291.639V291.022C289.563 290.502 289.142 290.081 288.622 290.081H242.702C242.183 290.081 241.761 290.502 241.761 291.022V291.639C241.761 292.159 242.183 292.58 242.702 292.58Z" fill="#D1A586"/>
<path d="M306.094 256.332C306.094 256.332 309.887 257.875 312.585 254.003C312.585 254.009 308.207 253.267 306.094 256.332Z" fill="#6BB7BF"/>
<path d="M305.827 254.75C305.827 254.75 305.56 253.394 303.969 253.348C303.969 253.348 304.568 254.721 305.827 254.75Z" fill="#6BB7BF"/>
<path d="M306.627 246.813C306.627 246.813 308.465 247.011 309.155 244.995C309.155 244.995 307.163 245.217 306.627 246.813Z" fill="#6BB7BF"/>
<path d="M310.989 220.16C307.277 219.364 307.215 216.329 307.215 216.329C311.588 217.711 310.989 220.16 310.989 220.16Z" fill="#6BB7BF"/>
<path d="M311.247 219.467C311.247 219.467 313.563 220.408 315.214 218.045C315.209 218.045 312.532 217.591 311.247 219.467Z" fill="#6BB7BF"/>
<path d="M306.166 265.244L305.685 265.797C305.67 265.819 305.648 265.835 305.622 265.844C305.597 265.852 305.569 265.851 305.544 265.842C305.518 265.832 305.497 265.815 305.483 265.792C305.468 265.769 305.462 265.742 305.465 265.715C305.494 250.086 307.477 236.201 309.144 228.008C310.964 219.066 312.807 213.781 312.827 213.728C312.807 213.781 311.145 219.152 309.331 228.068C307.662 236.273 305.752 246.998 306.245 265.032C306.246 265.11 306.218 265.186 306.166 265.244V265.244Z" fill="#6BB7BF"/>
<path d="M312.805 211.59C312.212 212.066 309.939 214.094 312.143 215.659C312.143 215.659 313.829 216.192 314.387 214.894C314.714 214.075 314.908 213.209 314.96 212.328C314.962 212.299 314.959 212.27 314.949 212.243C314.94 212.215 314.926 212.19 314.907 212.168C314.888 212.146 314.864 212.128 314.838 212.115C314.812 212.102 314.784 212.094 314.755 212.092C314.592 212.08 314.432 212.043 314.279 211.984C314.059 211.905 313.964 211.59 313.682 211.519C313.499 211.467 313.309 211.446 313.12 211.458C313.004 211.469 312.894 211.515 312.805 211.59V211.59Z" fill="#F99746"/>
<path d="M311.546 215.099C311.742 215.268 311.885 215.489 311.96 215.736C312.034 215.984 312.037 216.247 311.967 216.496V216.813C312.035 216.57 312.162 216.348 312.338 216.167C312.513 215.986 312.732 215.852 312.972 215.777C312.972 215.777 312.221 215.855 311.546 215.099Z" fill="#6BB7BF"/>
<path d="M310.989 220.16C307.277 219.364 307.215 216.329 307.215 216.329C307.215 216.329 310.158 217.942 310.989 220.16Z" fill="#8AD8DB"/>
<path d="M307.425 218.081C307.425 218.081 305.091 218.962 303.493 216.58C303.495 216.58 306.173 216.179 307.425 218.081Z" fill="#6BB7BF"/>
<path d="M311.588 263.95L312.058 264.51C312.072 264.534 312.093 264.551 312.119 264.561C312.145 264.57 312.173 264.571 312.198 264.562C312.224 264.553 312.246 264.536 312.261 264.513C312.275 264.49 312.281 264.462 312.278 264.435C312.565 248.808 310.859 234.885 309.356 226.662C307.716 217.685 305.979 212.362 305.961 212.309C305.979 212.362 307.535 217.766 309.168 226.717C310.674 234.956 312.366 245.716 311.522 263.745C311.521 263.819 311.544 263.891 311.588 263.95V263.95Z" fill="#6BB7BF"/>
<path d="M306.025 210.18C306.609 210.669 308.835 212.741 306.605 214.259C306.605 214.259 304.908 214.76 304.377 213.45C304.067 212.626 303.891 211.756 303.856 210.876C303.856 210.819 303.878 210.765 303.917 210.724C303.956 210.683 304.009 210.658 304.066 210.656C304.229 210.644 304.39 210.61 304.544 210.556C304.765 210.479 304.866 210.166 305.15 210.102C305.333 210.054 305.523 210.037 305.712 210.052C305.827 210.063 305.936 210.107 306.025 210.18V210.18Z" fill="#F99746"/>
<path d="M307.215 213.706C307.016 213.871 306.868 214.089 306.788 214.335C306.708 214.581 306.699 214.844 306.764 215.095V215.414C306.702 215.169 306.58 214.943 306.409 214.758C306.238 214.572 306.022 214.432 305.783 214.352C305.783 214.352 306.523 214.455 307.215 213.706Z" fill="#6BB7BF"/>
<path d="M308.415 215.337C308.415 215.337 310.881 215.749 311.972 213.084C311.972 213.091 309.265 213.232 308.415 215.337Z" fill="#6BB7BF"/>
<path d="M313.438 261.126L313.092 261.767C313.079 261.788 313.061 261.804 313.04 261.814C313.019 261.824 312.995 261.828 312.971 261.824C312.948 261.821 312.926 261.811 312.908 261.795C312.89 261.78 312.877 261.759 312.871 261.737C309.49 246.478 308.399 232.493 308.243 224.133C308.068 215.01 308.716 209.45 308.723 209.395C308.723 209.45 308.262 215.055 308.439 224.162C308.6 232.537 309.074 243.419 313.477 260.912C313.49 260.986 313.476 261.062 313.438 261.126Z" fill="#6BB7BF"/>
<path d="M308.218 207.323C307.744 207.916 305.975 210.389 308.461 211.436C308.461 211.436 310.224 211.59 310.484 210.201C310.625 209.331 310.625 208.444 310.484 207.574C310.48 207.545 310.47 207.518 310.455 207.492C310.441 207.467 310.421 207.445 310.398 207.428C310.374 207.411 310.348 207.398 310.319 207.391C310.291 207.384 310.262 207.382 310.233 207.387C310.07 207.41 309.906 207.41 309.743 207.387C309.523 207.354 309.351 207.069 309.06 207.065C308.871 207.053 308.681 207.073 308.498 207.125C308.387 207.162 308.29 207.231 308.218 207.323V207.323Z" fill="#F99746"/>
<path d="M307.753 211.015C307.981 211.137 308.17 211.321 308.297 211.546C308.424 211.771 308.485 212.028 308.471 212.286L308.533 212.597C308.545 212.345 308.62 212.1 308.751 211.884C308.883 211.668 309.066 211.489 309.285 211.363C309.285 211.363 308.577 211.605 307.753 211.015Z" fill="#6BB7BF"/>
<path d="M310.449 212.597C310.449 212.597 310.449 210.646 312.13 210.034C312.13 210.034 312.501 211.662 310.449 212.597Z" fill="#6BB7BF"/>
<path d="M306.499 209.461C306.499 209.461 306.548 207.971 305.177 207.541C305.17 207.541 304.839 208.927 306.499 209.461Z" fill="#ED9F4A"/>
<path d="M311.019 218.422C311.068 218.464 311.738 216.972 310.378 215.777C310.378 215.777 309.809 217.371 311.019 218.422Z" fill="#ED9F4A"/>
<path d="M311.972 218.306C311.959 218.102 312.023 217.901 312.153 217.743C312.282 217.586 312.466 217.483 312.668 217.455C312.668 217.455 312.787 218.081 311.972 218.306Z" fill="#6BB7BF"/>
<path d="M304.925 215.778C304.925 215.778 304.33 214.544 302.421 214.757C302.421 214.753 302.706 216.078 304.925 215.778Z" fill="#6BB7BF"/>
<path d="M315.476 267.073H303.239C303.047 267.071 302.857 267.029 302.682 266.947C302.507 266.866 302.352 266.749 302.227 266.602C302.101 266.456 302.009 266.285 301.955 266.1C301.902 265.915 301.889 265.72 301.917 265.53L307.612 226.271C307.637 226.094 307.726 225.932 307.861 225.814C307.996 225.697 308.169 225.632 308.348 225.632H310.169C310.359 225.633 310.543 225.702 310.687 225.826C310.832 225.951 310.927 226.122 310.956 226.311L316.785 265.567C316.811 265.755 316.797 265.945 316.743 266.127C316.69 266.308 316.597 266.475 316.473 266.618C316.349 266.761 316.196 266.875 316.024 266.954C315.852 267.032 315.665 267.073 315.476 267.073V267.073Z" fill="#F99746"/>
<path d="M305.95 265.885L308.974 225.643C308.814 225.664 308.664 225.736 308.549 225.849C308.433 225.963 308.358 226.111 308.335 226.271L302.64 265.53C302.612 265.721 302.626 265.917 302.681 266.102C302.735 266.288 302.829 266.46 302.956 266.606C303.082 266.752 303.239 266.87 303.415 266.95C303.591 267.031 303.782 267.073 303.975 267.073H306.422C306.258 266.924 306.13 266.739 306.048 266.534C305.966 266.328 305.933 266.106 305.95 265.885V265.885Z" fill="#FFB278"/>
<path d="M425.959 262.786C425.959 262.786 417.564 272.373 415.847 272.217C414.084 272.058 413.019 271.505 411.492 272.217C410.39 272.73 406.925 275.523 407.857 275.336C408.79 275.148 410.473 274.935 410.919 274.895C411.531 274.835 412.514 274.822 413.182 274.707C413.605 274.633 415.131 274.591 415.638 274.573C417.842 274.5 428.298 268.402 428.298 268.402L425.959 262.786Z" fill="#FFB27D"/>
<path d="M412.155 252.546C411.822 252.339 411.172 252.42 410.703 252.519V251.838C410.702 251.691 410.692 251.544 410.674 251.397H403.621C403.603 251.544 403.593 251.691 403.592 251.838V253.222C403.592 253.945 403.812 254.651 404.223 255.245C404.634 255.84 405.216 256.295 405.893 256.55C406.569 256.805 407.307 256.847 408.008 256.672C408.709 256.496 409.34 256.111 409.817 255.568V255.568C409.817 255.568 411.494 255.153 412.021 254.527C412.547 253.901 412.706 252.892 412.155 252.546ZM411.783 253.826C411.604 254.287 410.804 254.534 410.409 254.631C410.571 254.26 410.667 253.864 410.694 253.46C410.936 253.125 411.322 252.932 411.604 252.982C411.886 253.033 411.999 253.247 411.774 253.826H411.783Z" fill="#C45446"/>
<path d="M404.156 251.838V253.222C404.159 254.165 404.535 255.068 405.202 255.735C405.868 256.401 406.771 256.777 407.714 256.78C407.874 256.78 408.034 256.768 408.192 256.744C407.339 256.628 406.556 256.207 405.989 255.559C405.422 254.911 405.108 254.079 405.106 253.218V251.834C405.107 251.686 405.117 251.539 405.135 251.393H404.179C404.162 251.541 404.155 251.69 404.156 251.838V251.838Z" fill="#E37970"/>
<path d="M408.585 256.469H405.682V256.903H408.585V256.469Z" fill="#C45446"/>
<path d="M431.784 214.098C431.784 214.098 432.164 209.282 439.091 210.532C440.922 210.863 442.177 207.598 445.179 208.769C451.632 211.273 452.011 207.964 453.878 212.608C454.658 214.552 459.624 216.814 458.107 220.173C456.591 223.532 459.13 225.791 457.347 228.422C456.424 229.784 456.798 232.218 452.445 232.304C450.279 232.348 446.902 236.366 444.469 237.093C442.036 237.82 434.731 236.771 435.007 233.434C435.227 230.829 432.186 231.047 430.319 228.052C428.69 225.436 431.599 224.777 430.043 220.547C428.906 217.439 431.873 216.686 431.784 214.098Z" fill="#1C468A"/>
<path d="M393.707 332.567C393.855 334.178 391.613 334.57 389.015 334.698C386.416 334.826 387.203 335.359 383.643 336.005C380.084 336.651 378.658 335.674 378.4 335.194C378.179 334.769 379.826 334.092 381.589 333.347L382.25 333.058C384.234 332.177 385.349 330.413 386.896 328.754C388.362 327.191 389.762 322.186 389.762 322.186L394.597 321.152C394.597 321.152 393.24 325.657 392.768 327.581C392.49 328.712 392.9 329.977 393.264 330.94C393.484 331.46 393.633 332.007 393.707 332.567V332.567Z" fill="#FFB27D"/>
<path d="M389.013 334.698C386.416 334.828 387.201 335.36 383.641 336.005C380.082 336.651 378.656 335.675 378.398 335.194C378.177 334.769 379.824 334.092 381.587 333.347L381.614 333.376C383.372 333.884 385.235 333.906 387.005 333.44C389.361 332.801 391.633 331.394 393.26 330.94C393.479 331.461 393.627 332.008 393.701 332.567C393.862 334.178 391.613 334.577 389.013 334.698Z" fill="#C65447"/>
<path d="M436.539 271.583C436.539 271.583 409.731 272.788 403.681 276.608C397.631 280.427 387.924 324.91 387.924 324.91C387.924 324.91 388.523 325.39 389.861 325.534C391.106 325.67 393.846 324.938 393.846 324.938C393.846 324.938 407.793 305.034 408.776 300.019C409.759 295.005 409.517 290.542 411.754 290.412C413.991 290.282 441.879 293.802 446.098 286.372C450.316 278.942 436.539 271.583 436.539 271.583Z" fill="#163560"/>
<path d="M404.765 332.747C404.915 334.359 402.671 334.751 400.075 334.879C397.478 335.007 398.261 335.54 394.703 336.186C391.146 336.832 389.716 335.855 389.46 335.375C389.239 334.949 390.884 334.273 392.647 333.528L393.308 333.239C395.292 332.357 396.407 330.594 397.954 328.934C399.42 327.372 400.82 322.366 400.82 322.366L405.669 321.333C405.669 321.333 404.311 325.838 403.839 327.762C403.561 328.892 403.971 330.158 404.335 331.121C404.55 331.642 404.694 332.189 404.765 332.747Z" fill="#FFB27D"/>
<path d="M400.075 334.879C397.476 335.009 398.261 335.54 394.703 336.186C391.146 336.831 389.716 335.855 389.46 335.374C389.239 334.949 390.884 334.272 392.647 333.527L392.676 333.556C394.434 334.064 396.297 334.087 398.067 333.622C400.421 332.981 402.695 331.575 404.322 331.121C404.54 331.641 404.689 332.188 404.763 332.747C404.915 334.356 402.678 334.751 400.075 334.879Z" fill="#C65447"/>
<path d="M446.931 272.217C446.931 272.217 418.378 273.568 412.48 277.619C406.581 281.671 398.614 326.499 398.614 326.499C398.614 326.499 399.231 326.957 400.575 327.05C401.823 327.136 404.543 326.298 404.543 326.298C404.543 326.298 417.705 305.867 418.492 300.817C419.279 295.768 418.865 291.307 421.095 291.102C423.326 290.897 451.328 293.306 455.258 285.726C459.188 278.146 446.931 272.217 446.931 272.217Z" fill="#1C468A"/>
<path d="M455.476 235.736C455.466 235.72 455.454 235.705 455.441 235.692C455.203 235.428 454.935 235.194 454.643 234.993V234.993C452.311 233.362 448.143 233.009 448.143 233.009C448.143 233.009 447.687 232.967 446.966 232.934C446.173 230.826 445.713 228.607 445.604 226.357L445.192 226.47L438.245 228.332C438.245 228.332 438.551 230.536 438.696 232.624C438.727 233.082 438.752 233.532 438.763 233.946C438.56 234.019 434.238 234.627 433.299 235.637C432.36 236.646 430.48 243.377 430.006 244.57L456.752 245.01C456.752 245.01 457.411 238.024 455.476 235.736Z" fill="#FFB27D"/>
<path d="M456.457 283.575C453.292 283.877 442.617 277.432 439.062 275.336L438.882 275.23C437.4 274.348 435.318 273.949 433.336 273.621C430.812 273.209 428.458 272.929 427.702 272.028C426.805 270.954 429.446 269.764 431.568 268.527C432.635 267.906 433.574 267.269 433.867 266.634C434.088 266.136 434.077 265.043 433.925 263.643C433.9 263.381 433.865 263.11 433.828 262.828C433.642 263.21 433.429 263.578 433.191 263.93C432.534 264.891 431.774 265.778 430.925 266.575C429.918 267.529 428.915 268.241 428.28 268.391C427.86 268.485 427.421 268.445 427.024 268.278C425.922 267.838 424.839 266.621 423.989 265.444C423.788 265.166 423.598 264.889 423.427 264.624C422.845 263.742 422.433 263.013 422.276 262.841C421.802 262.316 424.183 261.276 425.159 260.498C426.135 259.72 429.973 244.574 429.973 244.574C430.447 243.381 432.324 236.655 433.266 235.641C433.266 235.641 436.931 240.117 441.683 239.861C446.435 239.606 454.486 235.054 454.612 234.984C454.939 235.177 455.227 235.432 455.458 235.733C457.391 238.021 456.721 245.01 456.721 245.01C456.721 245.01 453.021 261.32 453.021 262.96C453.021 265.977 455.516 272.914 456.706 277.908C457.479 281.075 457.713 283.458 456.457 283.575Z" fill="#6BB7BF"/>
<path d="M438.231 228.341C438.231 228.341 438.54 230.545 438.683 232.633C442.615 232.26 444.458 228.527 445.179 226.479L438.231 228.341Z" fill="#F4A269"/>
<path d="M437.048 230.393C437.048 230.393 446.378 229.926 445.998 224.12C445.619 218.315 446.565 214.343 440.592 214.396C434.619 214.449 433.605 216.739 433.261 218.709C432.917 220.68 434.61 230.367 437.048 230.393Z" fill="#FFB27D"/>
<path d="M436.653 216.463C436.653 216.463 438.884 215.941 439.613 217.025C440.343 218.11 439.821 218.718 441.449 219.174C443.078 219.63 443.629 219.597 443.466 220.737C443.303 221.876 445.101 222.721 445.179 223.631C445.256 224.541 446.003 224.997 446.721 225.063C447.44 225.13 447.111 213.318 444.345 212.796C441.579 212.273 438.912 212.895 438.099 213.545C437.286 214.195 436.653 216.463 436.653 216.463Z" fill="#1C468A"/>
<path d="M436.653 216.463C436.653 216.463 434.484 216.311 434.094 217.547C433.704 218.784 434.224 219.077 433.671 219.824C433.118 220.571 433.437 221.9 433.437 221.9C433.437 221.9 429.148 214.001 433.671 213.479C438.194 212.956 438.075 213.88 436.653 216.463Z" fill="#1C468A"/>
<path d="M433.819 260.961C433.2 262.824 432.093 264.871 430.932 266.573C429.924 267.527 428.922 268.239 428.287 268.389C427.867 268.483 427.428 268.443 427.031 268.276C425.929 267.836 424.846 266.619 423.996 265.442C423.795 265.164 423.606 264.887 423.434 264.622C426.398 262.244 432.016 256.802 432.6 249.354C433.409 239.187 433.863 261.433 433.819 260.961Z" fill="#599DAD"/>
<path d="M427.041 268.281C428.075 266.702 430.18 265.146 433.197 263.925C431.808 266.006 429.43 268.113 428.297 268.393C427.877 268.487 427.438 268.447 427.041 268.281V268.281Z" fill="#599DAD"/>
<path d="M451.709 248.707C451.709 248.707 449.38 272.12 439.069 275.336L438.888 275.23C437.407 274.349 435.324 273.95 433.343 273.621C430.819 273.209 428.465 272.929 427.709 272.028C426.812 270.954 429.453 269.764 431.575 268.528C432.642 267.906 433.581 267.269 433.874 266.634C434.094 266.136 434.083 265.043 433.931 263.643C443.938 259.941 451.709 248.707 451.709 248.707Z" fill="#599DAD"/>
<path d="M454.332 241.773C453.252 236.904 448.352 239.697 448.352 239.697C446.653 239.311 434.184 259.52 433.186 259.974C432.34 260.362 420.843 257.025 417.361 256.007C416.459 255.301 413.294 252.844 412.732 252.802C412.084 252.753 407.76 253.864 407.786 254.552C407.813 255.24 408.827 256.245 410.431 256.5C411.641 256.692 413.693 257.49 415.002 257.688C415.002 257.688 427.685 266.328 433.076 267.386C437.942 268.323 455.412 246.635 454.332 241.773Z" fill="#FFB27D"/>
<path d="M425.587 258.29C425.587 258.29 422.664 265.801 426.166 268.649C429.669 271.496 437.27 270.542 445.595 258.931C453.92 247.32 457.31 240.999 452.987 239.154C448.665 237.309 445.095 240.203 442.877 244.719C440.572 249.414 436.325 255.914 433.777 256.161C431.229 256.407 425.587 258.29 425.587 258.29Z" fill="#6BB7BF"/>
<path d="M352.286 187.68V188.815C352.286 188.815 351.977 192.362 356.344 192.88C360.71 193.398 364.294 193.321 364.175 190.594C363.782 188.474 363.073 185.185 363.049 183.431C363.039 182.72 363.09 182.01 363.203 181.308L354.741 181.139L352.249 181.546L352.286 187.68Z" fill="#FFB27D"/>
<path d="M352.255 181.546L352.286 187.68C353.241 188.127 354.283 188.356 355.337 188.353C359.227 188.353 361.742 185.501 363.051 183.431C363.041 182.72 363.093 182.01 363.205 181.308L354.744 181.139L352.255 181.546Z" fill="#E2915A"/>
<path d="M363.857 179.946C362.877 185.236 356.057 185.058 353.11 184.725C352.282 184.632 351.759 184.527 351.759 184.527C350.825 184.277 350.302 182.805 350.06 180.874C349.579 177.057 350.188 171.452 350.831 170.019C351.803 167.862 353.63 165.53 360.498 167.214C367.366 168.898 365.118 173.176 363.857 179.946Z" fill="#FFB27D"/>
<path d="M369.438 336.401H359.775C359.944 335.228 360.202 334.069 360.547 332.934C360.693 332.457 360.876 331.991 361.093 331.541C362.032 329.666 368.001 330.86 368.001 330.86C368.001 330.86 368.556 331.334 368.988 333.148C369.231 334.218 369.381 335.306 369.438 336.401V336.401Z" fill="#233862"/>
<path d="M340.238 333.353C340.212 334.676 340.047 335.912 339.577 336.402H320.466C320.708 335.712 321.396 334.671 323.358 334.352C325.588 333.993 329.064 332.919 331.092 330.772C331.83 330.023 332.348 329.085 332.59 328.061C333.49 324.059 340.025 329.289 340.025 329.289C340.182 330.638 340.253 331.996 340.238 333.353V333.353Z" fill="#233862"/>
<path d="M352.952 290.079C352.723 291.244 352.563 292.422 352.471 293.606C351.865 305.457 342.496 332.554 340.821 333.184C338.227 334.162 334.145 332.082 332.005 331.403C331.571 331.276 331.201 330.993 330.963 330.609C330.726 330.225 330.639 329.767 330.72 329.322C335.348 307.994 337.063 277.282 337.684 259.101C337.997 249.941 339.569 243.615 339.569 243.615C339.569 243.615 362.418 237.519 362.553 245.231C362.678 252.059 354.988 278.814 352.952 290.079Z" fill="#2B478B"/>
<path d="M352.952 290.079L337.689 259.105C338.002 249.945 339.573 243.62 339.573 243.62C339.573 243.62 362.423 237.523 362.557 245.235C362.679 252.059 354.989 278.814 352.952 290.079Z" fill="#233862"/>
<path d="M347.867 245.262L359.945 332.805C359.945 332.805 365.251 334.085 369.377 333.06C369.377 333.06 372.903 286.502 372.619 275.246C372.335 263.99 375.156 245.125 371.971 243.044C368.786 240.964 347.867 245.262 347.867 245.262Z" fill="#2B478B"/>
<path d="M348.724 164.99C350.998 164.73 353.219 164.129 355.312 163.207C358.206 161.948 361.856 163.334 363.042 163.958C362.999 163.703 362.901 163.459 362.753 163.246C363.057 163.466 363.273 163.786 363.364 164.15C363.419 164.19 363.443 164.218 363.428 164.227C363.759 164.166 364.099 164.188 364.42 164.291C364.42 164.291 364.149 164.254 364.052 164.428C364.039 164.446 364.024 164.462 364.007 164.476C368.521 166.656 368.938 173.79 367.485 175.439C365.738 177.423 363.642 181.897 363.642 181.897C363.642 181.897 362.879 180.841 363.201 179.093C363.523 177.346 362.008 177.346 360.102 176.552C358.195 175.759 359.784 173.533 358.118 172.184C356.452 170.835 350.336 171.628 350.404 170.595C348.136 169.768 348.724 165.221 348.724 164.99Z" fill="#233862"/>
<path d="M365.209 192.115L362.427 251.783C362.427 251.783 339.216 252.162 339.88 246.91C340.543 241.658 348.255 193.942 348.255 193.942L365.209 192.115Z" fill="#E9F3FE"/>
<path d="M373.498 225.936C372.118 230.078 374.721 243.979 375.649 248.689C375.854 249.685 375.989 250.274 375.989 250.274C372.775 255.502 361.001 255.436 361.001 255.436C358.735 245.429 357.558 229.491 357.558 229.491L366.595 189.896L377.959 200.4C377.959 200.4 377.099 206.807 376.035 213.327C375.197 218.489 374.245 223.741 373.498 225.936Z" fill="#22407A"/>
<path d="M354.188 180.815C354.188 180.815 353.968 181.496 352.249 181.256C352.249 181.256 350.805 181.049 350.911 180.288C350.904 180.279 352.357 179.852 354.188 180.815Z" fill="white"/>
<path d="M341.138 192.966V192.99C340.589 193.521 325.095 208.566 322.093 214.457C319.036 220.435 336.06 232.343 336.06 232.343C336.06 232.343 337.162 232.784 337.916 232.606C337.114 239.218 336.214 245.312 336.748 247.915C337.711 252.621 342.064 254.201 342.064 253.837C342.064 253.723 343.655 236.743 344.519 227.882C346.373 208.886 351.015 190.017 351.015 190.017C345.941 190.543 341.138 192.966 341.138 192.966ZM331.912 217.038C331.895 217.012 331.887 216.98 331.89 216.948C331.89 216.088 335.172 214.186 338.723 211.945L338.791 211.876C338.727 213.708 338.734 215.504 338.842 217.177C339.044 220.278 338.82 223.986 338.443 227.757C336.763 225.114 332.243 218.013 331.912 217.038Z" fill="#22407A"/>
<path d="M365.869 189.825C365.898 189.254 363.2 188.467 363.2 188.467C363.2 188.467 360.115 192.748 355.028 192.823C355.028 192.823 356.476 195.644 358.184 196.373C358.184 196.382 365.702 193.206 365.869 189.825Z" fill="#D9E9F9"/>
<path d="M355.028 192.721C355.028 192.721 352.332 191.125 352.324 189.393C352.324 189.393 350.582 189.173 349.824 190.019C349.824 190.019 349.185 192.988 350.031 194.711C350.031 194.711 353.913 194.119 355.028 192.721Z" fill="#D9E9F9"/>
<path d="M356.857 192.465L353.203 191.583C353.203 191.583 352.725 191.623 352.738 192.218C352.751 192.813 353.767 194.552 354.217 194.693C354.667 194.835 357.715 193.669 356.857 192.465Z" fill="#BA4C43"/>
<path d="M365.444 189.53C365.473 188.961 363.648 187.786 363.648 187.786C363.648 187.786 360.121 191.917 355.028 191.991C355.028 191.991 356.476 194.813 358.184 195.542C358.184 195.542 365.277 192.911 365.444 189.53Z" fill="#E9F3FE"/>
<path d="M355.028 191.991C355.028 191.991 352.302 190.546 352.293 188.815C352.293 188.815 350.649 189.538 349.888 190.383C349.888 190.383 349.185 192.256 350.032 193.98C350.032 193.98 353.913 193.389 355.028 191.991Z" fill="#E9F3FE"/>
<path d="M347.885 233.15C348.008 234.545 348.648 235.844 349.679 236.791L351.296 238.281C351.393 238.37 351.506 238.437 351.629 238.48C351.753 238.523 351.884 238.539 352.014 238.529C352.144 238.519 352.271 238.482 352.386 238.42C352.501 238.358 352.602 238.274 352.683 238.171L354.689 235.625C355.225 234.942 355.478 234.079 355.396 233.214C355.209 231.288 354.858 227.574 354.581 223.992C354.36 221.09 354.171 218.262 354.155 216.554C354.111 211.077 355.198 193.609 355.198 193.609L353.875 193.678C351.588 198.796 349.92 204.169 348.907 209.684C348.468 212.063 348.171 214.466 348.017 216.88C348.017 216.88 347.325 226.851 347.885 233.15Z" fill="#C65447"/>
<path d="M347.885 233.15C348.008 234.545 348.648 235.844 349.679 236.791L351.296 238.281C351.393 238.37 351.506 238.438 351.629 238.48C351.753 238.523 351.884 238.539 352.014 238.529C352.144 238.519 352.271 238.482 352.386 238.42C352.501 238.358 352.602 238.274 352.683 238.171L354.689 235.625C355.225 234.942 355.478 234.079 355.396 233.214C355.209 231.288 354.858 227.574 354.581 223.992C350.95 219.915 349.48 214.281 348.916 209.684C348.474 212.062 348.174 214.465 348.017 216.88C348.017 216.88 347.325 226.851 347.885 233.15Z" fill="#BA4C43"/>
<path d="M334.969 233.311C334.965 232.952 335.039 232.596 335.185 232.267C335.332 231.938 335.547 231.645 335.816 231.407C336.085 231.169 336.403 230.991 336.747 230.886C337.091 230.781 337.453 230.751 337.81 230.799C338.016 230.821 338.215 230.884 338.396 230.984C338.577 231.084 338.737 231.219 338.866 231.381C339.899 232.758 340.885 236.767 339.051 236.955C338.304 237.03 337.345 236.514 336.606 235.945C335.868 235.377 334.969 234.482 334.969 233.541V233.311Z" fill="#FFB27D"/>
<path d="M375.649 248.689C372.321 245.224 366.571 238.411 366.776 232.82C367.047 224.986 376.033 213.329 376.033 213.329C375.195 218.491 374.243 223.743 373.496 225.939C372.118 230.078 374.721 243.99 375.649 248.689Z" fill="#233862"/>
<path d="M375.546 235.063C375.546 235.063 373.152 236.26 371.7 235.661C370.247 235.061 368.539 234.614 366.917 236.463C365.295 238.312 364.951 239.593 365.293 240.276C365.634 240.959 369.419 240.704 370.047 240.276C370.675 239.849 371.669 238.797 372.299 238.98C374.036 239.485 375.502 238.158 376.322 237.102C376.815 236.465 375.482 236.157 375.546 235.063Z" fill="#FFB27D"/>
<path d="M366.595 189.896C366.595 189.896 376.123 190.949 378.369 195.099C380.615 199.25 392.303 216.067 391.92 223.056C391.536 230.045 375.98 237.88 375.98 237.88C375.98 237.88 372.535 236.425 372.482 234.858C372.429 233.291 383.238 223.928 382.583 222.181C381.928 220.433 370.02 206.616 368.88 202.058C367.741 197.5 366.595 189.896 366.595 189.896Z" fill="#22407A"/>
<path d="M338.793 211.876L338.725 211.945C335.172 214.186 331.892 216.088 331.892 216.948C331.416 215.431 336.034 209.093 337.528 207.803C339.022 206.514 338.793 211.876 338.793 211.876Z" fill="#233862"/>
<path d="M363.648 187.786C363.648 187.786 356.412 218.085 357.565 229.498C357.565 229.498 360.225 217.303 366.623 207.312C366.623 207.312 364.289 205.258 364.419 204.5C364.419 204.5 366.154 203.986 367.836 204.332C367.836 204.332 367.651 191.273 366.601 189.893C365.552 188.513 363.648 187.786 363.648 187.786Z" fill="#233862"/>
<path d="M352.293 188.816C352.44 188.727 345.125 218.421 344.512 227.883C344.512 227.883 345.237 211 345.173 206.133C345.173 206.133 348.178 204.542 348.178 203.984C348.178 203.426 344.973 201.917 344.973 201.917C344.973 201.917 347.001 191.518 348.109 190.372C349.218 189.226 352.293 188.816 352.293 188.816Z" fill="#233862"/>
<path d="M258.195 320.054C258.37 320.248 258.486 320.487 258.528 320.744C258.571 321.001 258.539 321.265 258.435 321.505C258.085 322.472 256.928 323.552 255.585 324.63C255.413 324.769 255.261 324.894 255.129 325.011L255.026 325.104L254.946 325.174C253.694 326.329 254.166 326.594 251.916 328.935C249.352 331.604 247.585 331.652 247.082 331.41C246.659 331.203 247.523 329.788 248.479 328.196C248.526 328.119 248.57 328.042 248.618 327.976C248.746 327.755 248.872 327.548 248.997 327.337C250.119 325.421 249.833 324.522 249.566 321.674C249.346 319.358 245.962 308.736 245.962 308.736L250.88 307.89C250.88 307.89 252.359 316.347 253.99 317.65C254.871 318.344 255.839 318.353 256.676 318.869C256.736 318.904 256.795 318.939 256.851 318.979C257.345 319.275 257.797 319.637 258.195 320.054V320.054Z" fill="#FFB27D"/>
<path d="M258.195 320.054C258.37 320.247 258.486 320.487 258.528 320.744C258.571 321.001 258.539 321.265 258.435 321.504C257.994 322.472 256.879 323.545 255.57 324.621C255.4 324.762 255.25 324.89 255.129 325.011L255.025 325.104L254.946 325.174C253.694 326.329 254.166 326.594 251.916 328.934C249.352 331.604 247.585 331.652 247.082 331.41C246.659 331.202 247.523 329.787 248.479 328.196C250.273 327.494 251.85 326.332 253.051 324.826C254.593 322.856 255.625 320.323 256.676 318.857C256.736 318.893 256.795 318.928 256.85 318.968C257.346 319.267 257.798 319.633 258.195 320.054V320.054Z" fill="#C65447"/>
<path d="M218.557 316.984C218.255 318.5 216.091 318.249 213.675 317.659C211.259 317.068 211.832 317.769 208.385 317.387C204.938 317.006 203.904 315.726 203.799 315.214C203.706 314.76 205.405 314.602 207.228 314.39C207.448 314.366 207.687 314.337 207.918 314.308C209.974 314.05 211.482 312.721 213.351 311.63C215.114 310.599 217.759 306.389 217.759 306.389L222.476 306.764C222.476 306.764 220.001 310.511 219.044 312.157C218.48 313.118 218.511 314.39 218.581 315.371C218.645 315.907 218.637 316.45 218.557 316.984Z" fill="#FFB27D"/>
<path d="M213.675 317.658C211.25 317.068 211.832 317.769 208.385 317.387C204.938 317.006 203.904 315.725 203.799 315.214C203.706 314.76 205.405 314.601 207.228 314.39L207.243 314.425C208.716 315.375 210.418 315.908 212.17 315.968C214.504 316.023 216.974 315.355 218.586 315.381C218.645 315.919 218.632 316.461 218.548 316.995C218.255 318.5 216.091 318.249 213.675 317.658Z" fill="#C65447"/>
<path d="M229.053 247.712C229.053 247.712 227.929 244.959 226.692 244.847C225.456 244.735 221.524 244.115 221.242 244.677C220.959 245.239 221.242 247.263 222.086 247.983C222.93 248.704 228.154 249.894 228.154 249.894L229.053 247.712Z" fill="#FFB27D"/>
<path d="M236.632 286.826L246.797 314.181C247.825 314.258 248.858 314.163 249.854 313.901C251.232 313.504 252.812 312.461 252.812 312.461C252.812 312.461 250.291 286.196 245.667 280.723C241.043 275.25 236.632 286.826 236.632 286.826Z" fill="#AA413E"/>
<path d="M276.825 275.759C276.825 275.759 247.619 265.883 241.106 267.986C234.593 270.088 215.043 309.01 215.043 309.01C215.043 309.01 215.484 309.596 216.69 310.048C217.81 310.469 220.523 310.443 220.523 310.443C220.523 310.443 238.173 295.312 240.273 290.899C242.374 286.487 243.216 282.286 245.316 282.704C247.417 283.123 272.426 293.002 278.097 287.112C283.768 281.223 282.285 273.586 282.285 273.586L276.825 275.759Z" fill="#C65447"/>
<path d="M258.986 229.815C258.521 228.852 257.999 227.142 257.743 224.085C257.783 224.387 258.309 228.233 259.788 230.411C265.863 234.398 277.504 247.715 277.273 250.247C277.273 250.247 281.375 243.291 281.445 243.249C281.445 243.249 289.01 233.631 280.044 228.12C275.488 225.319 275.512 221.729 275.702 218.603C275.891 215.478 274.458 202.04 265.331 205.557C265.331 205.557 263.866 204.896 263.209 205.004C263.507 205.061 263.785 205.193 264.018 205.388C262.96 205.324 261.446 205.403 260.185 206.12C256.837 208.022 253.844 225.081 258.986 229.815Z" fill="#B5453C"/>
<path d="M260.147 230.617C260.116 230.631 263.079 232.16 265.309 231.559C267.405 230.988 268.774 228.27 268.745 228.264C267.864 228.087 267.601 226.866 267.621 221.625L267.22 221.702L260.471 223.051C260.471 223.051 260.623 225.173 260.628 227.175C260.634 228.845 260.531 230.437 260.147 230.617Z" fill="#FFB27D"/>
<path d="M260.472 223.051C260.472 223.051 260.624 225.173 260.628 227.175C264.406 227.069 266.403 223.624 267.221 221.713L260.472 223.051Z" fill="#ED975D"/>
<path d="M267.917 220.968C267.917 220.968 269.901 217.841 270.372 215.167C270.71 213.258 269.738 206.181 262.627 207.202C261.194 207.403 259.825 207.923 258.62 208.725C257.077 209.767 254.849 212.018 257.34 218.202L257.988 220.287L267.917 220.968Z" fill="#B5453C"/>
<path d="M259.209 224.934C259.209 224.934 268.146 225.081 268.15 219.516C268.155 213.951 269.314 210.219 263.61 209.891C257.906 209.562 256.795 211.685 256.337 213.541C255.878 215.397 256.885 224.753 259.209 224.934Z" fill="#FFB27D"/>
<path d="M259.542 209.754C259.542 209.754 261.988 216.285 265.742 217.248C269.495 218.211 271.124 217.208 271.124 217.208C269.272 215.58 268.043 213.36 267.648 210.926C267.648 210.926 261.397 206.646 259.542 209.754Z" fill="#B5453C"/>
<path d="M260.147 210.285C260.147 210.285 258.32 211.742 257.875 213.151C257.43 214.559 257.229 217.486 256.378 217.387C256.378 217.387 254.534 212.948 256.599 210.437C258.803 207.784 260.147 210.285 260.147 210.285Z" fill="#B5453C"/>
<path d="M283.687 275.913C283.205 277.251 281.728 277.595 279.746 277.364C275.969 276.923 270.359 274.386 266.317 272.634C260.146 269.96 257.351 272.471 255.389 270.771C253.428 269.072 257.631 265.29 253.987 247.732C252.753 241.781 260.58 229.013 260.58 229.013C260.58 229.013 261.256 232.709 268.735 228.264C268.999 228.107 271.948 232.471 274.787 237.854C277.917 243.789 280.915 250.961 280.033 254.658C278.369 261.702 285.089 272.026 283.687 275.913Z" fill="#699DEE"/>
<path d="M260.579 229.013L255.964 247.957C255.964 247.957 255.389 248.98 254.487 250.437C252.374 253.855 248.461 259.661 245.955 260.251C244.721 260.542 242.092 259.513 239.184 258.047C233.674 255.268 227.183 250.915 227.183 250.915C226.765 248.393 228.947 246.337 228.947 246.337C228.947 246.337 242.116 251.287 243.423 251.38C246.275 251.585 249.175 237.825 251.84 233.238C253.778 229.917 260.579 229.013 260.579 229.013Z" fill="#699DEE"/>
<path d="M261.197 221.561C261.197 221.561 261.029 222.266 259.271 222.158C259.271 222.158 257.794 222.068 257.838 221.29C257.838 221.288 259.271 220.737 261.197 221.561Z" fill="white"/>
<path d="M283.687 275.913C283.204 277.251 281.727 277.595 279.746 277.364C277.132 276.224 265.838 271.854 265.966 268.885C266.153 264.496 268.137 264.355 266.735 258.94C265.611 254.589 276.045 246.502 277.709 244.744C280.839 250.681 280.925 250.961 280.043 254.662C278.368 261.702 285.088 272.026 283.687 275.913Z" fill="#4A75CB"/>
<path d="M254.487 250.432C252.374 253.85 248.461 259.656 245.955 260.247C244.721 260.538 242.092 259.508 239.185 258.043C241.307 258.589 243.372 258.574 245.371 258.38C247.545 258.159 248.175 255.514 251.607 251.516C253.833 248.924 254.379 249.577 254.487 250.432Z" fill="#4A75CB"/>
<path d="M264.951 258.834C264.951 258.834 263.059 257.364 261.272 257.712C259.484 258.06 258.612 259.29 258.682 259.85C258.753 260.41 259.696 261.986 261.063 262.127C262.429 262.268 266.317 261.285 266.317 261.285L264.951 258.834Z" fill="#FFB27D"/>
<path d="M268.746 228.264C268.746 228.264 276.03 228.704 278.549 232.231C282.1 237.181 288.263 257.388 286.583 262.012L264.426 261.917C264.426 261.917 263.888 259.409 264.646 258.195C265.404 256.98 277.533 255.019 278.091 254.448C278.649 253.877 271.086 243.52 271.086 241.838C271.086 240.157 268.746 228.264 268.746 228.264Z" fill="#699DEE"/>
<path d="M263.048 267.11H236.224L231.389 250.247H258.172L263.048 267.11Z" fill="#1C468A"/>
<path d="M271.384 266.454H236.315V267.11H271.384V266.454Z" fill="#163560"/>
<path d="M244.741 258.404C244.571 257.811 244.915 257.331 245.508 257.331C245.82 257.349 246.118 257.461 246.365 257.653C246.611 257.845 246.793 258.106 246.888 258.404C247.058 258.997 246.716 259.477 246.123 259.477C245.811 259.459 245.512 259.347 245.265 259.155C245.018 258.964 244.836 258.702 244.741 258.404Z" fill="#163560"/>
<path d="M178.76 228.839C178.76 228.839 181.692 226.443 182.745 226.43C183.799 226.416 185.8 225.892 185.721 226.234C185.641 226.575 183.957 227.023 184.246 227.181C184.535 227.34 186.986 226.681 187.669 227.076C188.352 227.47 189.961 229.103 188.67 229.815C187.378 230.527 183.508 231.658 182.498 231.528C181.489 231.398 179.234 231.237 179.234 231.237L178.76 228.839Z" fill="#FFB27D"/>
<path d="M141.313 317.947L143.773 328.304L147.456 328.282L147.591 317.947H141.313Z" fill="#FFB27D"/>
<path d="M172.296 318.388L179.294 328.304L182.02 324.802L177.808 317.023L172.296 318.388Z" fill="#FFB27D"/>
<path d="M157.958 193.157C157.961 193.132 157.961 193.106 157.958 193.08C157.912 192.564 157.853 192.055 157.782 191.537C157.586 190.059 157.292 188.595 156.901 187.156C156.68 186.391 156.46 185.677 156.206 185.035C156.167 184.936 156.129 184.844 156.094 184.749C155.494 183.287 154.813 182.238 154.11 181.844C152.838 181.121 151.315 181.042 150.249 181.103C150.484 180.908 150.764 180.775 151.064 180.718C150.403 180.618 148.928 181.275 148.928 181.275C139.733 177.733 138.289 191.268 138.483 194.414C138.677 197.559 135.398 198.586 130.61 201.063C121.483 205.791 120.681 212.123 120.681 212.123C120.752 212.164 120.825 212.213 120.902 212.269C121.353 211.502 122.288 210.065 123.073 209.844C122.599 210.851 122.177 211.881 121.807 212.93C122.96 213.812 124.538 215.134 126.244 216.626C128.528 218.61 131.036 220.891 133.044 222.731C133.031 222.103 133.055 221.211 133.284 220.748L133.667 223.058L133.718 223.36C134.999 224.536 136.008 225.475 136.522 225.956C136.572 226.004 136.619 226.048 136.663 226.086L136.883 226.306C136.808 225.5 137.943 223.593 139.718 221.237C139.841 221.072 139.969 220.906 140.099 220.739C140.67 219.996 141.3 219.218 141.972 218.42C142.215 218.131 142.46 217.843 142.713 217.539C142.914 217.303 143.119 217.069 143.33 216.831C143.826 216.267 144.34 215.7 144.86 215.134C146.206 213.664 147.619 212.218 148.997 210.902C150.998 208.987 152.927 207.351 154.489 206.324C154.549 206.238 154.606 206.15 154.657 206.06C154.954 205.569 155.206 205.053 155.411 204.517C155.474 204.354 155.536 204.186 155.594 204.021C156.028 202.725 156.345 201.392 156.539 200.038C156.439 201.408 156.218 202.766 155.878 204.096C155.818 204.316 155.759 204.508 155.699 204.693C155.585 205.045 155.448 205.39 155.289 205.725C155.562 205.471 155.809 205.191 156.028 204.889C156.179 204.684 156.317 204.469 156.442 204.246C158 201.559 158.331 197.277 157.958 193.157Z" fill="#163560"/>
<path d="M154.143 206.521C154.174 206.534 151.19 208.083 148.944 207.471C146.832 206.893 145.453 204.164 145.483 204.149C146.365 203.973 146.634 202.743 146.616 197.462L147.02 197.541L153.817 198.888C153.817 198.888 153.663 201.028 153.658 203.043C153.654 204.735 153.755 206.34 154.143 206.521Z" fill="#FFB27D"/>
<path d="M146.455 184.063C146.455 184.063 149.81 180.495 154.019 183.883C154.019 183.883 151.569 183.457 146.455 184.063Z" fill="#E37970"/>
<path d="M153.817 198.888C153.817 198.888 153.663 201.028 153.658 203.043C149.854 202.935 147.844 199.466 147.02 197.533L153.817 198.888Z" fill="#ED975D"/>
<path d="M146.319 196.803C146.319 196.803 144.335 193.653 143.846 190.96C143.504 189.036 144.483 181.91 151.646 182.935C153.089 183.135 154.468 183.657 155.682 184.462C157.225 185.511 159.482 187.779 156.971 193.999L156.31 196.1L146.319 196.803Z" fill="#163560"/>
<path d="M180.909 322.084L177.308 322.194L173.407 322.313C173.407 322.313 164.399 312.283 159.345 296.204C159.228 295.832 159.103 295.453 158.972 295.069C156.206 287.007 150.474 276.883 147.452 267.721C146.971 266.262 146.539 264.889 146.151 263.588C146.028 263.172 145.907 262.764 145.792 262.361C143.564 254.624 142.927 249.546 142.325 244.118L164.145 244.294C164.145 244.294 167.665 281.351 180.909 322.084Z" fill="#2B478B"/>
<path d="M161.088 231.757C161.033 242.138 162.611 246.593 162.611 246.593C162.611 246.593 153.271 251.338 142.169 247.845C142.039 247.803 132.976 245.735 132.976 245.735C133.163 245.314 134.814 238.319 134.995 237.933C137.34 232.901 139.118 230.693 139.403 229.145C139.877 226.271 139.968 223.346 139.674 220.448C139.235 215.815 138.332 211.237 136.98 206.783C140.007 206.093 142.839 204.885 145.988 203.697C146.711 204.599 148.926 205.542 150.837 205.5C153.041 205.452 153.767 204.504 153.652 203.47C156.008 204.782 157.888 206.02 157.888 206.02C159.892 209.501 163.954 212.877 164.247 218.215C164.322 219.54 161.091 231.466 161.088 231.757Z" fill="#E7F1FD"/>
<path d="M155.086 200.79C155.086 200.79 146.087 200.938 146.08 195.333C146.074 189.728 144.91 185.97 150.656 185.635C156.402 185.3 157.52 187.44 157.978 189.311C158.436 191.183 157.429 200.614 155.086 200.79Z" fill="#FFB27D"/>
<path d="M154.754 185.507C154.754 185.507 152.296 192.084 148.509 193.056C144.723 194.028 143.087 193.017 143.087 193.017C144.954 191.376 146.192 189.137 146.59 186.684C146.59 186.684 152.895 182.377 154.754 185.507Z" fill="#163560"/>
<path d="M154.143 186.041C154.143 186.041 155.983 187.511 156.433 188.937C156.883 190.363 157.094 193.303 157.938 193.204C157.938 193.204 159.796 188.734 157.718 186.204C155.496 183.524 154.143 186.041 154.143 186.041Z" fill="#163560"/>
<path d="M143.65 327.724C143.801 329.156 143.641 330.604 143.181 331.969C143.181 331.969 142.577 334.718 145.283 334.768C147.99 334.819 148.651 334.563 148.345 332.879C148.038 331.196 147.463 328.282 147.463 328.282L143.65 327.724Z" fill="#FFB27D"/>
<path d="M148.701 336.4H142.777C142.534 335.181 143.07 332.582 143.16 332.082C143.164 332.054 143.169 332.026 143.176 331.998C143.175 331.989 143.175 331.98 143.176 331.972C146.237 334.777 148.155 331.899 148.155 331.899V331.914C148.613 333.014 148.708 335.97 148.701 336.4Z" fill="#C45446"/>
<path d="M188.539 333.155C188.539 333.155 183.552 327.618 182.02 324.801L178.304 326.701L186.595 334.486L188.535 334.232L188.539 333.155Z" fill="#FFB27D"/>
<path d="M191.707 336.4H185.432C184.508 336.4 183.77 334.857 182.776 332.873C182.368 332.058 181.454 331.61 180.517 331.363L180.541 336.395H179.093L177.76 331.075C176.878 329.45 177.689 327.978 178.311 326.697C179.034 326.697 180.98 327.191 184.663 331.341C185.875 332.706 187.211 333.19 188.54 333.151L188.595 333.179C191.656 334.561 191.707 336.4 191.707 336.4Z" fill="#C45446"/>
<path d="M177.307 322.194L173.406 322.313C173.406 322.313 164.398 312.283 159.344 296.204C159.227 295.831 159.102 295.452 158.972 295.069C156.206 287.006 150.473 276.883 147.451 267.721C146.971 266.262 146.539 264.889 146.151 263.588C146.027 263.172 145.906 262.764 145.792 262.361L149.003 259.923C149.003 259.923 158.65 275.543 161.634 290.242C164.228 303.01 174.618 318.372 177.307 322.194Z" fill="#233862"/>
<path d="M149.339 291.611C149.394 298.758 149.032 315.194 148.102 321.996H144.648C142.737 321.996 141.783 321.969 141.783 321.969C139.449 310.138 137.787 300.352 136.577 291.917C135.585 284.994 134.704 279.061 134.025 273.954C133.341 268.812 132.868 264.507 132.702 260.87C132.678 260.297 132.658 259.74 132.647 259.2C132.636 258.66 132.632 258.129 132.647 257.615L151.496 255.777C151.245 268.303 149.31 287.456 149.339 291.611Z" fill="#2B478B"/>
<path d="M144.648 321.996C142.737 321.996 141.783 321.969 141.783 321.969C139.449 310.138 137.787 300.352 136.577 291.917C135.585 284.994 134.703 279.061 134.025 273.954C133.341 268.812 132.867 264.507 132.702 260.871L139.621 264.939C139.621 264.939 135.213 266.498 136.89 278.287C138.567 290.077 142.303 320.327 144.648 321.996Z" fill="#233862"/>
<path d="M145.538 260.754C145.538 260.754 144.216 265.552 139.616 264.941C135.016 264.331 128.492 261.571 128.492 261.571C128.492 261.571 130.454 255.367 132.9 247.219C135.856 237.351 136.59 223.485 138.316 215.462C138.798 213.214 142.063 212.485 142.175 211.14L145.986 203.746C145.986 203.746 151.67 216.501 151.976 219.716C152.283 222.932 145.538 260.754 145.538 260.754Z" fill="#F99746"/>
<path d="M142.325 229.185C142.12 234.393 140.3 243.273 132.98 247.177C132.954 247.192 132.923 247.205 132.894 247.218C135.85 237.351 135.81 227.887 137.536 219.864C141.47 219.044 142.438 226.319 142.325 229.185Z" fill="#ED7D2B"/>
<path d="M189.858 226.073H182.805C182.805 226.106 182.805 226.241 182.785 226.43C182.757 227.069 182.713 228.321 182.721 228.438C182.821 229.935 183.861 230.759 184.868 231.154H184.884C185.11 231.245 185.343 231.319 185.58 231.374C185.737 231.407 185.896 231.431 186.056 231.447C186.148 231.457 186.24 231.462 186.332 231.462C186.83 231.462 187.323 231.356 187.777 231.151C188.405 230.871 188.938 230.416 189.312 229.84C189.687 229.264 189.887 228.592 189.889 227.905V226.518C189.888 226.37 189.877 226.221 189.858 226.073V226.073Z" fill="#C45446"/>
<path d="M189.281 226.073H188.324C188.343 226.219 188.352 226.367 188.353 226.514V227.9C188.349 228.707 188.072 229.489 187.569 230.119C187.065 230.749 186.364 231.19 185.578 231.372C185.479 231.394 185.377 231.411 185.276 231.425C185.434 231.449 185.594 231.461 185.754 231.46C185.854 231.46 185.954 231.455 186.054 231.445C186.45 231.414 186.837 231.314 187.198 231.149C187.858 230.851 188.414 230.361 188.791 229.743C188.942 229.495 189.061 229.229 189.146 228.952C189.252 228.613 189.306 228.26 189.305 227.905V226.518C189.306 226.37 189.298 226.221 189.281 226.073V226.073Z" fill="#E37970"/>
<path d="M184.881 231.583H187.784V231.149H184.881V231.583Z" fill="#C45446"/>
<path d="M134.289 240.745C134.289 240.745 137.571 240.036 138.415 240.966C139.259 241.896 139.737 243.39 138.889 243.915C138.04 244.439 135.605 243.002 134.727 243.582C134.099 243.996 133.899 245.052 133.268 244.684C132.638 244.316 131.97 241.896 131.97 241.896L134.289 240.745Z" fill="#FFB27D"/>
<path d="M145.979 203.746C145.979 203.746 137.123 204.134 134.994 206.111C132.865 208.088 120.119 223.364 119.91 227.367C119.7 231.369 131.075 242.746 131.075 242.746C131.075 242.746 134.236 241.984 135.605 239.996C135.605 239.996 128.552 227.411 128.968 226.862C129.385 226.313 141.346 216.516 142.325 218.689C143.171 220.563 145.979 203.746 145.979 203.746Z" fill="#F99746"/>
<path d="M179.673 227.541C179.673 227.541 169.561 230.913 168.295 230.627C167.03 230.34 165.227 216.66 164.251 211.952C162.995 205.904 158.201 204.701 158.201 204.701L153.654 203.484C153.654 203.484 158.86 216.347 159.014 218.95C159.168 221.553 159.625 261.521 159.625 261.521C159.625 261.521 159.318 263.36 162.84 262.593C166.362 261.826 167.282 261.05 167.282 261.05C167.282 261.05 165.756 249.877 165.038 239.959C168.626 239.346 180.164 233.499 180.164 233.499C181.954 230.697 179.673 227.541 179.673 227.541Z" fill="#F99746"/>
<path d="M207.938 270.688L206.095 281.124L201.006 309.953L196.459 335.723C196.423 335.914 196.32 336.087 196.17 336.211C196.019 336.335 195.83 336.401 195.635 336.4C195.551 336.401 195.468 336.384 195.391 336.35C195.314 336.317 195.245 336.267 195.189 336.204C195.134 336.141 195.092 336.067 195.068 335.987C195.044 335.906 195.037 335.822 195.048 335.738L198.969 306.526L203.157 275.276L203.79 270.562L207.938 270.688Z" fill="#C69D7F"/>
<path d="M228.072 270.688L226.229 281.124L221.142 309.951L216.595 335.721C216.56 335.912 216.458 336.085 216.307 336.209C216.157 336.333 215.968 336.399 215.773 336.398C215.689 336.399 215.606 336.383 215.528 336.349C215.451 336.316 215.382 336.266 215.326 336.203C215.27 336.14 215.229 336.066 215.204 335.985C215.18 335.905 215.173 335.82 215.185 335.736L219.106 306.524L223.293 275.275L223.926 270.56L228.072 270.688Z" fill="#C69D7F"/>
<path d="M206.095 281.124C206.338 276.641 203.166 275.285 203.166 275.285L203.799 270.571L207.938 270.688L206.095 281.124Z" fill="#A0795F"/>
<path d="M381.636 336.4C381.441 336.401 381.251 336.335 381.101 336.211C380.95 336.087 380.847 335.914 380.811 335.723L376.771 312.827L370.961 279.896L369.337 270.688L373.474 270.571L374.192 275.916L379.233 313.482L382.224 335.743C382.235 335.826 382.227 335.91 382.202 335.99C382.177 336.07 382.135 336.143 382.08 336.205C382.024 336.268 381.955 336.317 381.879 336.351C381.802 336.384 381.719 336.401 381.636 336.4V336.4Z" fill="#C69D7F"/>
<path d="M374.192 275.916C371.512 277.099 370.961 279.896 370.961 279.896L369.337 270.688L373.474 270.571L374.192 275.916Z" fill="#A0795F"/>
<path d="M404.838 336.4C404.643 336.401 404.454 336.334 404.303 336.21C404.152 336.087 404.05 335.914 404.013 335.723L399.976 312.827L394.163 279.896L392.539 270.688L396.678 270.571L397.397 275.916L402.437 313.482L405.426 335.743C405.437 335.826 405.43 335.91 405.405 335.99C405.38 336.07 405.338 336.144 405.283 336.206C405.227 336.268 405.158 336.318 405.081 336.351C405.004 336.385 404.921 336.401 404.838 336.4V336.4Z" fill="#C69D7F"/>
<path d="M397.388 275.916C394.706 277.099 394.155 279.896 394.155 279.896L392.53 270.688L396.669 270.571L397.388 275.916Z" fill="#A0795F"/>
<path d="M188.341 267.073H404.278C404.748 267.073 405.214 267.166 405.649 267.346C406.084 267.526 406.479 267.79 406.811 268.123C407.144 268.457 407.407 268.852 407.587 269.287C407.766 269.722 407.858 270.188 407.857 270.659V270.734C407.857 271.683 407.48 272.593 406.809 273.265C406.138 273.936 405.227 274.313 404.278 274.313H188.341C187.393 274.313 186.483 273.936 185.812 273.265C185.141 272.595 184.764 271.685 184.764 270.736V270.659C184.764 269.71 185.141 268.8 185.812 268.129C186.483 267.458 187.393 267.082 188.341 267.082V267.073Z" fill="#E0B594"/>
<path d="M231.241 262.724C230.906 262.52 230.258 262.599 229.789 262.698V262.017C229.788 261.87 229.778 261.722 229.758 261.576H222.705C222.687 261.722 222.677 261.87 222.676 262.017V263.401C222.676 264.124 222.896 264.83 223.307 265.424C223.718 266.019 224.3 266.474 224.977 266.729C225.653 266.983 226.391 267.026 227.092 266.85C227.793 266.675 228.424 266.29 228.901 265.746V265.746C228.901 265.746 230.578 265.332 231.105 264.706C231.631 264.08 231.801 263.068 231.241 262.724ZM230.869 264.005C230.69 264.466 229.89 264.713 229.496 264.81C229.656 264.438 229.752 264.043 229.78 263.639C230.022 263.304 230.408 263.11 230.69 263.161C230.972 263.212 231.094 263.421 230.869 264.003V264.005Z" fill="#C45446"/>
<path d="M223.251 262.015V263.399C223.254 264.342 223.63 265.245 224.297 265.911C224.963 266.578 225.866 266.954 226.809 266.957C226.968 266.957 227.127 266.945 227.285 266.921C226.431 266.805 225.649 266.384 225.081 265.736C224.514 265.088 224.201 264.256 224.199 263.395V262.011C224.2 261.863 224.21 261.716 224.228 261.57H223.271C223.256 261.718 223.249 261.866 223.251 262.015V262.015Z" fill="#E37970"/>
<path d="M227.68 266.646H224.777V267.08H227.68V266.646Z" fill="#C45446"/>
<path d="M331.508 262.724C331.173 262.52 330.525 262.599 330.054 262.698V262.017C330.054 261.87 330.044 261.722 330.025 261.576H322.972C322.954 261.722 322.944 261.87 322.943 262.017V263.401C322.943 264.124 323.163 264.83 323.574 265.424C323.985 266.019 324.567 266.474 325.244 266.729C325.92 266.983 326.658 267.026 327.359 266.85C328.06 266.675 328.691 266.29 329.168 265.746V265.746C329.168 265.746 330.847 265.332 331.372 264.706C331.896 264.08 332.068 263.068 331.508 262.724ZM331.136 264.005C330.957 264.466 330.157 264.713 329.763 264.81C329.923 264.438 330.019 264.043 330.045 263.639C330.289 263.304 330.675 263.11 330.955 263.161C331.235 263.212 331.361 263.421 331.136 264.003V264.005Z" fill="#C45446"/>
<path d="M323.519 262.015V263.399C323.522 264.342 323.898 265.246 324.565 265.912C325.232 266.579 326.136 266.954 327.079 266.957C327.239 266.957 327.399 266.945 327.557 266.921C326.703 266.805 325.921 266.384 325.354 265.736C324.786 265.088 324.473 264.256 324.471 263.395V262.011C324.471 261.863 324.481 261.716 324.5 261.57H323.552C323.532 261.717 323.521 261.866 323.519 262.015V262.015Z" fill="#E37970"/>
<path d="M327.947 266.646H325.044V267.08H327.947V266.646Z" fill="#C45446"/>
<path d="M69.3394 212.736V336.399H36.7193C36.7193 336.399 36.2277 331.59 36.0823 323.836C36.0007 319.311 36.0294 313.781 36.3468 307.614C36.3754 307.112 36.4019 306.6 36.4327 306.087C36.598 303.261 36.8228 300.308 37.1226 297.27C37.1512 297.002 37.1777 296.731 37.2063 296.457C37.537 293.277 37.9447 289.971 38.4538 286.572C38.8704 283.812 39.3487 280.987 39.9085 278.119C39.946 277.919 39.9857 277.716 40.0253 277.513C40.3192 276.054 40.6293 274.585 40.9555 273.105C41.0833 272.525 41.2177 271.941 41.3522 271.357C41.6167 270.22 41.8944 269.074 42.1853 267.93C42.8921 265.121 43.6841 262.295 44.5613 259.453C44.6495 259.167 44.7398 258.874 44.828 258.572C45.2277 257.309 45.6435 256.042 46.0755 254.77C46.7367 252.842 47.4405 250.912 48.187 248.982C48.652 247.772 49.1413 246.557 49.6439 245.358C54.4135 233.926 60.8052 222.744 69.3394 212.736Z" fill="#DEEDFF"/>
<path d="M620.49 336.32H21.0864C20.6506 336.32 20.2974 336.673 20.2974 337.109V337.675C20.2974 338.111 20.6506 338.464 21.0864 338.464H620.49C620.926 338.464 621.279 338.111 621.279 337.675V337.109C621.279 336.673 620.926 336.32 620.49 336.32Z" fill="#2E3552"/>
</g>
<defs>
<clipPath id="clip0">
<rect width="646" height="405" rx="37" fill="white"/>
</clipPath>
</defs>
</svg>
