<?xml version="1.0" encoding="UTF-8" standalone="no"?>
<svg
   xmlns:dc="http://purl.org/dc/elements/1.1/"
   xmlns:cc="http://creativecommons.org/ns#"
   xmlns:rdf="http://www.w3.org/1999/02/22-rdf-syntax-ns#"
   xmlns:svg="http://www.w3.org/2000/svg"
   xmlns="http://www.w3.org/2000/svg"
   viewBox="0 0 1165.0133 223.29333"
   height="223.29333"
   width="1165.0133"
   xml:space="preserve"
   id="svg2"
   version="1.1"><metadata
     id="metadata8"><rdf:RDF><cc:Work
         rdf:about=""><dc:format>image/svg+xml</dc:format><dc:type
           rdf:resource="http://purl.org/dc/dcmitype/StillImage" /></cc:Work></rdf:RDF></metadata><defs
     id="defs6" /><g
     transform="matrix(1.3333333,0,0,-1.3333333,0,223.29333)"
     id="g10"><g
       transform="scale(0.1)"
       id="g12"><path
         id="path14"
         style="fill:#111013;fill-opacity:1;fill-rule:nonzero;stroke:none"
         d="m 5942.05,276.039 c -224.16,0 -367.64,153.871 -367.64,343.68 0,189.793 146.66,343.66 367.64,343.66 219.59,0 367.63,-153.867 367.63,-343.66 0,-189.809 -148.64,-343.68 -367.63,-343.68 z m 0,935.081 c -384.32,0 -639.38,-264.776 -639.38,-591.401 0,-326.641 249.55,-591.4182 639.38,-591.4182 380.86,0 639.36,264.7772 639.36,591.4182 0,326.625 -257.47,591.401 -639.36,591.401" /><path
         id="path16"
         style="fill:#111013;fill-opacity:1;fill-rule:nonzero;stroke:none"
         d="m 7833.05,300.031 c -80.42,0 -145.62,65.18 -145.62,145.598 v 517.75 h 216.39 v 215.781 h -216.39 v 191.81 l -255.74,-35.49 v -156.32 h -376.6 v 78.18 c 0,80.4 65.18,145.59 145.61,145.59 h 167.05 v 239.78 h -205.76 c -200.29,0 -362.66,-162.38 -362.66,-362.67 V 1179.16 H 6608.12 V 963.379 h 191.21 V 60.2695 h 255.76 V 963.379 h 376.6 V 422.93 c 0,-200.289 162.37,-362.6605 362.66,-362.6605 h 173.84 V 300.031 h -135.14" /><path
         id="path18"
         style="fill:#111013;fill-opacity:1;fill-rule:nonzero;stroke:none"
         d="m 2911.83,276.039 c -224.16,0 -367.64,153.871 -367.64,343.68 0,189.793 146.66,343.66 367.64,343.66 219.59,0 367.64,-153.867 367.64,-343.66 0,-189.809 -148.65,-343.68 -367.64,-343.68 z m 0,935.081 c -384.31,0 -639.37,-264.776 -639.37,-591.401 0,-326.641 249.54,-591.4182 639.37,-591.4182 380.86,0 639.37,264.7772 639.37,591.4182 0,326.625 -257.48,591.401 -639.37,591.401" /><path
         id="path20"
         style="fill:#111013;fill-opacity:1;fill-rule:nonzero;stroke:none"
         d="m 1999.41,1653.45 c -103.62,0 -172.39,-72.15 -172.39,-161.15 0,-89 67.28,-161.15 172.39,-161.15 102.69,0 172.39,72.15 172.39,161.15 0,89 -69.42,161.15 -172.39,161.15" /><path
         id="path22"
         style="fill:#111013;fill-opacity:1;fill-rule:nonzero;stroke:none"
         d="m 1420.99,60.2695 h 255.75 V 1674.67 l -255.75,-35.49 V 60.2695" /><path
         id="path24"
         style="fill:#111013;fill-opacity:1;fill-rule:nonzero;stroke:none"
         d="m 1871.54,60.2695 h 255.74 V 1179.16 H 1871.54 V 60.2695" /><path
         id="path26"
         style="fill:#111013;fill-opacity:1;fill-rule:nonzero;stroke:none"
         d="m 639.367,276.039 c -224.152,0 -367.629,153.871 -367.629,343.68 0,189.793 146.649,343.66 367.629,343.66 163.75,0 287.668,-85.582 340.129,-207.805 H 1263.12 C 1202.27,1016.68 966.574,1211.12 639.367,1211.12 255.055,1211.12 0,946.344 0,619.719 0,293.078 249.539,28.3008 639.367,28.3008 c 332.965,0 572.403,202.3792 627.353,471.5272 H 985.813 C 937.441,369.16 809.707,276.039 639.367,276.039" /><path
         id="path28"
         style="fill:#111013;fill-opacity:1;fill-rule:nonzero;stroke:none"
         d="m 4338.71,860.852 c 0,81.418 119.34,118.511 257.95,118.511 291.52,0 300.37,-117.297 300.37,-117.297 h 291.61 c 0,0 -29.99,349.054 -607.97,349.054 -316.16,0 -529.69,-160.75 -529.69,-344.854 0,-462.688 886.25,-241.028 886.25,-479.036 0,-56.582 -59,-127.16 -301.43,-127.16 -275.73,0 -307.53,143.508 -307.53,143.508 h -297.6 c 0,0 40.94,-375.2772 608.21,-375.2772 391.44,0 578.07,153.5002 578.07,355.5002 0,467.859 -878.24,266.449 -878.24,477.051" /><path
         id="path30"
         style="fill:#f47216;fill-opacity:1;fill-rule:nonzero;stroke:none"
         d="m 8653.91,319.328 h 1.21 c -50.9,35.082 -80.04,62.723 -80.04,173.684 v 265.301 c 0,110.96 29.14,138.582 80.04,173.683 h -1.21 c 49.97,30.152 83.71,84.434 83.71,147.054 0,95.13 -77.13,172.26 -172.28,172.26 -95.14,0 -172.27,-77.13 -172.27,-172.26 0,-62.62 33.75,-116.902 83.71,-147.054 h -1.21 c 50.89,-35.101 80.03,-62.723 80.03,-173.683 V 493.012 c 0,-110.961 -29.14,-138.602 -80.03,-173.684 h 1.21 C 8426.82,289.16 8393.07,234.879 8393.07,172.262 8393.07,77.1211 8470.2,0 8565.34,0 c 95.15,0 172.28,77.1211 172.28,172.262 0,62.617 -33.74,116.898 -83.71,147.066" /></g></g></svg>