<svg width="567" height="405" viewBox="0 0 567 405" fill="none" xmlns="http://www.w3.org/2000/svg">
<rect width="565.905" height="404.905" rx="36.2215" fill="white"/>
<mask id="mask0" mask-type="alpha" maskUnits="userSpaceOnUse" x="0" y="0" width="566" height="405">
<rect width="565.905" height="404.905" rx="36.2215" fill="white"/>
</mask>
<g mask="url(#mask0)">
</g>
<g clip-path="url(#clip0)">
<path d="M567 0H0V405H567V0Z" fill="white"/>
<path d="M567.632 328.078H0.631836V404.556H567.632V328.078Z" fill="#E9E4E0"/>
<path d="M167.971 297.548H142.325C142.11 297.548 141.904 297.634 141.752 297.786C141.6 297.937 141.515 298.143 141.515 298.358V317.794C141.509 319.142 141.77 320.479 142.283 321.726C142.795 322.974 143.549 324.108 144.501 325.063C145.453 326.019 146.584 326.777 147.829 327.295C149.075 327.812 150.41 328.078 151.759 328.078H158.545C161.262 328.078 163.868 326.999 165.789 325.078C167.71 323.157 168.789 320.551 168.789 317.834V298.399C168.795 298.288 168.777 298.178 168.739 298.074C168.7 297.971 168.641 297.876 168.564 297.797C168.487 297.717 168.395 297.654 168.293 297.611C168.191 297.569 168.082 297.547 167.971 297.548Z" fill="#C1C1C1"/>
<path d="M164.894 324.734C170.684 321.494 180.612 311.825 178.96 305.039C178.765 304.174 178.37 303.366 177.808 302.68C177.245 301.994 176.531 301.449 175.721 301.087C171.883 299.306 166.392 301.46 165.785 301.711L167.607 305.517C168.935 304.982 172.174 304.1 173.697 304.812C173.917 304.919 174.106 305.08 174.248 305.28C174.389 305.479 174.478 305.711 174.507 305.954C175.47 309.906 167.704 318.239 162.497 321.178L164.894 324.734Z" fill="#C1C1C1"/>
<path d="M157.792 291.442C157.897 291.645 157.913 291.37 157.978 291.2L158.124 290.584C158.213 290.155 158.294 289.718 158.359 289.264C158.482 288.33 158.53 287.388 158.504 286.446C158.442 284.453 158.017 282.488 157.249 280.648C156.519 278.912 155.441 277.344 154.083 276.04C153.485 275.44 152.831 274.897 152.131 274.42L150.512 273.327C148.652 272.059 147.044 270.458 145.766 268.606C145.248 267.847 144.854 267.011 144.6 266.128C144.437 265.64 144.409 265.116 144.519 264.614C144.579 264.434 144.65 264.259 144.73 264.087C144.88 263.743 145.051 263.408 145.24 263.083C145.672 262.362 146.185 261.694 146.77 261.091C147.891 259.97 149.331 259.224 150.892 258.953C152.441 258.733 154.02 259.017 155.395 259.763C156.208 260.18 156.971 260.688 157.67 261.277C158.07 261.563 158.444 261.882 158.788 262.233C159.111 262.628 159.55 262.911 160.043 263.042L161.557 263.318C164.861 263.917 167.898 260.888 168.352 256.483C168.605 254.259 168.097 252.015 166.91 250.118C166.416 249.422 165.805 248.816 165.104 248.328C164.45 247.835 163.762 247.386 163.047 246.984C161.644 246.13 160.147 245.443 158.585 244.935C155.398 243.859 151.951 243.831 148.746 244.854C145.288 246.053 142.261 248.245 140.041 251.154C138.778 252.797 137.742 254.603 136.963 256.524C136.525 257.592 136.165 258.691 135.886 259.811C135.556 261.172 135.374 262.565 135.344 263.966C135.315 266.62 135.868 269.249 136.963 271.667C137.794 273.5 138.934 275.176 140.332 276.623C142.474 278.839 145.037 280.604 147.872 281.814L148.835 282.211L149.305 282.397L149.637 282.518C150.086 282.647 150.519 282.829 150.925 283.061C151.772 283.469 152.533 284.035 153.168 284.729C153.925 285.562 154.531 286.521 154.957 287.563C155.226 288.191 155.453 288.834 155.638 289.491C155.743 289.839 155.84 290.195 155.929 290.568L156.067 291.151C156.132 291.378 156.132 291.507 156.277 292.107C156.423 292.706 156.869 292.965 157.29 292.779C157.511 292.644 157.68 292.439 157.771 292.197C157.862 291.955 157.869 291.689 157.792 291.442V291.442Z" fill="white"/>
<path d="M156.034 127.731H147.401V170.003H156.034V127.731Z" fill="#E3DFDC"/>
<path d="M144.584 127.772H135.951V170.044H144.584V127.772Z" fill="#E3DFDC"/>
<path d="M133.392 127.82H124.76V170.092H133.392V127.82Z" fill="#E3DFDC"/>
<path d="M165.995 141.033L157.5 140.997L157.377 170.32L165.872 170.356L165.995 141.033Z" fill="#D3CDC9"/>
<path d="M173.864 142.364L167.405 147.882L186.453 170.176L192.912 164.658L173.864 142.364Z" fill="#E3DFDC"/>
<path d="M212.211 182.159L108.807 181.633L108.831 170.895L212.235 171.421L212.211 182.159Z" stroke="#E3DFDC" stroke-width="2.42943" stroke-miterlimit="10"/>
<path d="M247.324 162.691H317.203V201.448C317.203 205.596 315.555 209.573 312.623 212.506C309.69 215.438 305.713 217.086 301.565 217.086H264.565C259.999 217.086 255.62 215.272 252.391 212.043C249.162 208.814 247.349 204.435 247.349 199.869V162.691H247.324Z" fill="#9A1C27"/>
<path d="M336.727 271.602L231.079 269.82V258.58C231.079 240.23 253.632 223.119 275.813 223.119H292.471C312.173 223.119 336.727 240.351 336.727 256.653V271.602Z" fill="#383F45"/>
<path d="M289.216 199.877H275.765C274.46 199.877 273.209 200.395 272.286 201.316C271.363 202.238 270.843 203.488 270.841 204.792V225.888C270.8 227.444 271.071 228.992 271.638 230.441C272.205 231.89 273.056 233.211 274.142 234.326C275.228 235.441 276.526 236.327 277.96 236.932C279.393 237.537 280.934 237.848 282.49 237.848C284.046 237.848 285.587 237.537 287.02 236.932C288.454 236.327 289.752 235.441 290.838 234.326C291.924 233.211 292.775 231.89 293.342 230.441C293.909 228.992 294.18 227.444 294.139 225.888V204.792C294.137 203.488 293.617 202.238 292.694 201.316C291.771 200.395 290.52 199.877 289.216 199.877V199.877Z" fill="#FBC39D"/>
<path d="M270.841 222.957C270.841 222.957 271.788 229.824 282.494 229.824C293.2 229.824 294.139 222.957 294.139 222.957H270.841Z" fill="#F9AC7F"/>
<path d="M315.964 173.42C314.439 173.361 312.931 173.758 311.633 174.562C310.336 175.367 309.308 176.54 308.683 177.933C308.058 179.325 307.863 180.873 308.125 182.377C308.386 183.881 309.091 185.272 310.149 186.372C311.207 187.472 312.57 188.231 314.063 188.55C315.555 188.87 317.109 188.736 318.525 188.165C319.941 187.595 321.154 186.614 322.008 185.348C322.862 184.083 323.318 182.591 323.317 181.065C323.354 179.077 322.6 177.155 321.222 175.722C319.843 174.289 317.952 173.461 315.964 173.42Z" fill="#F9AC7F"/>
<path d="M249.049 173.42C247.524 173.361 246.015 173.758 244.718 174.562C243.421 175.367 242.393 176.54 241.768 177.933C241.143 179.325 240.948 180.873 241.21 182.377C241.471 183.881 242.176 185.272 243.234 186.372C244.292 187.472 245.655 188.231 247.148 188.55C248.64 188.87 250.194 188.736 251.61 188.165C253.026 187.595 254.239 186.614 255.093 185.348C255.946 184.083 256.403 182.591 256.402 181.065C256.439 179.077 255.685 177.155 254.307 175.722C252.928 174.289 251.037 173.461 249.049 173.42Z" fill="#F9AC7F"/>
<path d="M279.813 225.265L279.757 225.322C280.656 225.403 281.571 225.451 282.494 225.451C285.205 225.45 287.905 225.102 290.527 224.415C290.524 224.391 290.524 224.366 290.527 224.342C304.756 220.609 315.291 207.206 315.291 191.253V151.265C315.291 132.412 300.593 135.417 282.461 135.417C264.33 135.417 249.632 132.412 249.632 151.265V191.253C249.664 209.166 262.945 223.848 279.813 225.265Z" fill="#FBC39D"/>
<path d="M311.13 178.101V188.896H297.055C297.055 188.896 294.172 181.114 282.478 181.114C270.785 181.114 267.902 188.896 267.902 188.896H253.852V178.101C253.852 173.85 252.297 172.433 249.665 171.987V191.253C249.665 209.166 262.938 223.847 279.814 225.265L279.758 225.321C280.656 225.402 281.572 225.451 282.495 225.451C283.418 225.451 284.325 225.402 285.224 225.321L285.167 225.265C302.043 223.847 315.324 209.166 315.324 191.253V171.987C312.684 172.489 311.13 173.85 311.13 178.101Z" fill="#3A0909"/>
<path d="M272.331 193.544H292.098C292.098 193.544 290.357 201.294 282.227 201.294C274.096 201.294 272.331 193.544 272.331 193.544Z" fill="#E6E6E6"/>
<path d="M360.001 316.368H206.081C202.919 316.368 200.355 318.931 200.355 322.093V322.353C200.355 325.515 202.919 328.078 206.081 328.078H360.001C363.163 328.078 365.727 325.515 365.727 322.353V322.093C365.727 318.931 363.163 316.368 360.001 316.368Z" fill="#C1C1C1"/>
<path d="M345.919 240.651H219.216C215.16 240.651 211.871 243.939 211.871 247.996V320.733C211.871 324.789 215.16 328.078 219.216 328.078H345.919C349.975 328.078 353.264 324.789 353.264 320.733V247.996C353.264 243.939 349.975 240.651 345.919 240.651Z" fill="#D2D3D5"/>
<path d="M280.825 294.252C278.87 294.252 276.958 293.672 275.332 292.586C273.706 291.499 272.439 289.955 271.69 288.148C270.942 286.341 270.746 284.353 271.127 282.435C271.509 280.517 272.451 278.755 273.834 277.373C275.216 275.99 276.978 275.048 278.896 274.667C280.814 274.285 282.802 274.481 284.609 275.229C286.416 275.978 287.96 277.245 289.047 278.871C290.133 280.497 290.713 282.409 290.713 284.364C290.709 286.985 289.666 289.498 287.812 291.351C285.959 293.205 283.446 294.248 280.825 294.252Z" fill="white"/>
<path d="M283.143 185.673H281.239C280.709 185.673 280.186 185.56 279.703 185.341C279.22 185.123 278.789 184.805 278.438 184.407C278.087 184.01 277.825 183.543 277.669 183.036C277.512 182.53 277.465 181.996 277.531 181.47L278.478 173.866C278.6 172.969 279.042 172.146 279.724 171.55C280.406 170.955 281.281 170.627 282.187 170.627V170.627C283.093 170.625 283.969 170.952 284.651 171.548C285.334 172.144 285.776 172.968 285.896 173.866L286.843 181.47C286.91 181.996 286.864 182.529 286.709 183.036C286.553 183.542 286.292 184.01 285.942 184.407C285.592 184.805 285.161 185.123 284.678 185.341C284.196 185.56 283.672 185.673 283.143 185.673V185.673Z" fill="#F9AC7F"/>
<path d="M284.948 120.054H278.049C276.519 120.054 275.279 121.294 275.279 122.824V122.961C275.279 124.491 276.519 125.731 278.049 125.731H284.948C286.478 125.731 287.718 124.491 287.718 122.961V122.824C287.718 121.294 286.478 120.054 284.948 120.054Z" fill="#952C1B"/>
<path d="M247.324 162.691L317.211 162.65V154.398C317.21 150.371 316.415 146.383 314.872 142.662C313.33 138.942 311.069 135.562 308.219 132.716C305.37 129.869 301.988 127.612 298.265 126.073C294.543 124.534 290.555 123.744 286.527 123.747H277.975C273.948 123.749 269.961 124.545 266.241 126.088C262.521 127.631 259.141 129.892 256.295 132.741C253.449 135.59 251.192 138.972 249.652 142.694C248.113 146.415 247.322 150.403 247.324 154.431V162.691Z" fill="#DB3A40"/>
<path d="M278.882 141.854H284.697C287.212 141.854 289.624 142.854 291.402 144.632C293.181 146.41 294.18 148.822 294.18 151.337V157.913H269.424V151.37C269.42 150.124 269.661 148.889 270.134 147.736C270.607 146.584 271.303 145.536 272.181 144.652C273.06 143.768 274.104 143.066 275.253 142.586C276.403 142.106 277.636 141.858 278.882 141.854V141.854Z" fill="#3A0909"/>
<path d="M269.853 152.819H294.261V161.023H269.853C269.315 161.024 268.782 160.919 268.284 160.713C267.787 160.507 267.334 160.206 266.954 159.825C266.573 159.444 266.271 158.992 266.066 158.494C265.86 157.997 265.755 157.463 265.756 156.925V156.925C265.755 156.386 265.86 155.853 266.065 155.354C266.271 154.856 266.573 154.404 266.953 154.022C267.334 153.641 267.786 153.338 268.284 153.132C268.781 152.926 269.315 152.819 269.853 152.819Z" fill="#EF818A"/>
<path d="M273.821 157.103C273.816 157.499 273.694 157.884 273.469 158.211C273.245 158.537 272.929 158.79 272.561 158.936C272.194 159.083 271.791 159.117 271.403 159.035C271.016 158.952 270.662 158.756 270.386 158.472C270.11 158.189 269.925 157.829 269.853 157.44C269.782 157.05 269.827 156.648 269.984 156.285C270.141 155.922 270.403 155.613 270.735 155.398C271.068 155.183 271.457 155.072 271.853 155.078C272.381 155.089 272.884 155.308 273.252 155.687C273.621 156.065 273.825 156.574 273.821 157.103Z" fill="#FF553C"/>
<path d="M273.821 157.103C273.816 157.499 273.694 157.884 273.469 158.211C273.245 158.537 272.929 158.79 272.561 158.936C272.194 159.083 271.791 159.117 271.403 159.035C271.016 158.952 270.662 158.756 270.386 158.472C270.11 158.189 269.925 157.829 269.853 157.44C269.782 157.05 269.827 156.648 269.984 156.285C270.141 155.922 270.403 155.613 270.735 155.398C271.068 155.183 271.457 155.072 271.853 155.078C272.381 155.089 272.884 155.308 273.252 155.687C273.621 156.065 273.825 156.574 273.821 157.103Z" fill="#DB3A40"/>
<path d="M280.343 159.035C281.428 158.851 282.158 157.822 281.974 156.737C281.79 155.653 280.762 154.923 279.677 155.107C278.592 155.291 277.862 156.319 278.046 157.404C278.23 158.489 279.259 159.219 280.343 159.035Z" fill="#DB3A40"/>
<path d="M290.187 157.103C290.187 157.497 290.071 157.882 289.852 158.21C289.633 158.537 289.322 158.793 288.958 158.943C288.594 159.094 288.193 159.134 287.807 159.057C287.42 158.98 287.065 158.79 286.787 158.512C286.508 158.233 286.318 157.878 286.241 157.492C286.165 157.105 286.204 156.705 286.355 156.341C286.506 155.977 286.761 155.665 287.088 155.447C287.416 155.228 287.801 155.111 288.195 155.111C288.723 155.113 289.228 155.324 289.602 155.697C289.975 156.07 290.185 156.575 290.187 157.103V157.103Z" fill="#DB3A40"/>
<path d="M269.602 170.57C269.602 171.171 269.424 171.758 269.09 172.257C268.756 172.757 268.282 173.146 267.727 173.376C267.172 173.605 266.562 173.666 265.973 173.548C265.384 173.431 264.842 173.142 264.418 172.717C263.993 172.293 263.704 171.752 263.587 171.162C263.469 170.573 263.53 169.963 263.759 169.408C263.989 168.853 264.379 168.379 264.878 168.045C265.377 167.711 265.964 167.533 266.565 167.533C267.371 167.533 268.143 167.853 268.712 168.423C269.282 168.992 269.602 169.765 269.602 170.57Z" fill="#111110"/>
<path d="M299.776 170.57C299.776 171.171 299.598 171.758 299.264 172.257C298.93 172.757 298.456 173.146 297.901 173.376C297.346 173.605 296.736 173.666 296.146 173.548C295.557 173.431 295.016 173.142 294.592 172.717C294.167 172.293 293.878 171.752 293.761 171.162C293.643 170.573 293.703 169.963 293.933 169.408C294.163 168.853 294.552 168.379 295.052 168.045C295.551 167.711 296.138 167.533 296.739 167.533C297.544 167.533 298.317 167.853 298.886 168.423C299.456 168.992 299.776 169.765 299.776 170.57Z" fill="#111110"/>
<path d="M294.26 152.803C294.26 152.803 300.229 149.208 299.775 143.215L292.082 145.402L293.702 138.761L286.875 145.766L294.26 152.803Z" fill="#3A0909"/>
<path d="M161.687 99.8011C178.776 99.8011 192.63 85.9476 192.63 68.8583C192.63 51.7691 178.776 37.9155 161.687 37.9155C144.598 37.9155 130.744 51.7691 130.744 68.8583C130.744 85.9476 144.598 99.8011 161.687 99.8011Z" fill="#F4F4F4"/>
<path d="M161.72 40.7983C156.248 40.7983 150.9 42.4207 146.351 45.4604C141.802 48.5001 138.256 52.8204 136.162 57.8752C134.069 62.93 133.521 68.4921 134.588 73.8582C135.656 79.2243 138.29 84.1534 142.159 88.0222C146.028 91.8909 150.957 94.5256 156.323 95.5929C161.689 96.6603 167.251 96.1125 172.306 94.0188C177.361 91.925 181.681 88.3794 184.721 83.8302C187.76 79.281 189.383 73.9326 189.383 68.4614C189.374 61.1273 186.457 54.0961 181.271 48.9101C176.085 43.7242 169.054 40.8069 161.72 40.7983V40.7983Z" fill="#F4F4F4"/>
<path d="M161.719 100.578C155.365 100.578 149.153 98.6941 143.87 95.1637C138.587 91.6334 134.47 86.6157 132.038 80.7451C129.607 74.8746 128.971 68.4149 130.212 62.183C131.452 55.9511 134.512 50.227 139.006 45.7345C143.499 41.242 149.224 38.1831 155.457 36.9444C161.689 35.7058 168.148 36.3431 174.018 38.7758C179.888 41.2086 184.905 45.3274 188.434 50.6114C191.963 55.8954 193.846 62.1073 193.844 68.4614C193.835 76.9781 190.448 85.1434 184.425 91.1649C178.402 97.1864 170.236 100.572 161.719 100.578ZM161.719 40.7983C156.248 40.7983 150.899 42.4207 146.35 45.4604C141.801 48.5 138.255 52.8204 136.162 57.8752C134.068 62.9299 133.52 68.492 134.587 73.8582C135.655 79.2243 138.289 84.1534 142.158 88.0221C146.027 91.8909 150.956 94.5255 156.322 95.5929C161.688 96.6603 167.25 96.1124 172.305 94.0187C177.36 91.9249 181.68 88.3793 184.72 83.8301C187.76 79.281 189.382 73.9326 189.382 68.4614C189.373 61.1273 186.456 54.0961 181.27 48.9101C176.084 43.7241 169.053 40.8069 161.719 40.7983V40.7983Z" fill="#E3DFDC" stroke="#E3DFDC" stroke-width="1.49005" stroke-miterlimit="10"/>
<path d="M161.809 74.5026C161.5 74.5029 161.197 74.4175 160.934 74.256C160.671 74.0944 160.458 73.863 160.319 73.5875L153.03 59.2863C152.93 59.0912 152.87 58.8783 152.852 58.6597C152.834 58.4412 152.86 58.2213 152.927 58.0126C152.995 57.8039 153.102 57.6106 153.244 57.4435C153.386 57.2765 153.56 57.1391 153.755 57.0391C153.95 56.9391 154.163 56.8786 154.382 56.8609C154.6 56.8432 154.82 56.8688 155.029 56.9361C155.237 57.0034 155.431 57.1111 155.598 57.2531C155.765 57.3952 155.902 57.5687 156.002 57.7639L163.339 72.0732C163.44 72.2687 163.501 72.4822 163.519 72.7014C163.536 72.9206 163.511 73.1412 163.443 73.3504C163.375 73.5597 163.267 73.7534 163.124 73.9206C162.981 74.0877 162.806 74.225 162.61 74.3245C162.363 74.4517 162.087 74.5131 161.809 74.5026V74.5026Z" fill="#E3DFDC"/>
<path d="M155.792 72.5672C155.577 72.5854 155.364 72.5176 155.199 72.3787C155.034 72.2397 154.931 72.041 154.913 71.8262C154.895 71.6114 154.963 71.3982 155.102 71.2334C155.241 71.0686 155.439 70.9658 155.654 70.9476L182.977 66.2345C183.192 66.1969 183.413 66.2462 183.591 66.3715C183.77 66.4967 183.891 66.6878 183.929 66.9026C183.966 67.1173 183.917 67.3383 183.792 67.5167C183.666 67.6951 183.475 67.8165 183.26 67.8541L155.937 72.551L155.792 72.5672Z" fill="#E3DFDC"/>
<path d="M419.384 301.249H413.635V263.439C413.635 262.677 413.938 261.946 414.477 261.406C415.016 260.867 415.747 260.564 416.51 260.564C417.272 260.564 418.003 260.867 418.542 261.406C419.082 261.946 419.384 262.677 419.384 263.439V301.249Z" fill="white"/>
<path d="M428.033 301.249H422.275V263.439C422.275 262.677 422.578 261.946 423.117 261.406C423.657 260.867 424.388 260.564 425.15 260.564C425.528 260.563 425.903 260.637 426.253 260.781C426.603 260.925 426.92 261.137 427.188 261.404C427.456 261.671 427.669 261.988 427.814 262.337C427.958 262.687 428.033 263.061 428.033 263.439V301.249Z" fill="white"/>
<path d="M410.331 312.319H404.581V274.477C404.581 273.714 404.884 272.983 405.423 272.444C405.962 271.905 406.693 271.602 407.456 271.602C408.219 271.602 408.951 271.905 409.492 272.444C410.032 272.982 410.337 273.714 410.339 274.477L410.331 312.319Z" fill="white"/>
<path d="M431.88 290.155H400.338V328.224H431.88V290.155Z" fill="#C1C1C1"/>
<path d="M435.33 282.988H397.236V290.147H435.33V282.988Z" fill="#AAAAAA"/>
<path d="M445.031 66.5342H355.652V174.271H445.031V66.5342Z" fill="#F4F4F4"/>
<path d="M445.031 66.5342H355.652V174.271H445.031V66.5342Z" stroke="#E3DFDC" stroke-width="3.70892" stroke-miterlimit="10"/>
<path d="M429.386 82.7788H369.662V158.399H429.386V82.7788Z" fill="#E3DFDC"/>
<path d="M380.368 121.763C380.01 121.401 379.809 120.912 379.809 120.403C379.809 119.894 380.01 119.405 380.368 119.042L389.916 109.495C390.263 109.133 390.737 108.921 391.238 108.903C391.738 108.886 392.226 109.064 392.598 109.4C392.97 109.736 393.196 110.203 393.229 110.703C393.262 111.203 393.099 111.696 392.774 112.078C392.735 112.128 392.692 112.174 392.645 112.216L384.417 120.403L392.604 128.59C392.962 128.951 393.162 129.439 393.162 129.947C393.162 130.455 392.962 130.942 392.604 131.303C392.242 131.668 391.75 131.875 391.236 131.878C390.979 131.879 390.726 131.828 390.489 131.73C390.253 131.631 390.038 131.486 389.859 131.303L380.368 121.763ZM406.403 128.59L414.615 120.403L406.436 112.216C406.107 111.846 405.932 111.364 405.947 110.869C405.963 110.374 406.168 109.904 406.519 109.555C406.871 109.206 407.343 109.006 407.838 108.995C408.333 108.983 408.814 109.162 409.181 109.495L418.712 119.042C419.07 119.405 419.271 119.894 419.271 120.403C419.271 120.912 419.07 121.401 418.712 121.763L409.165 131.303C408.804 131.665 408.315 131.871 407.804 131.878C407.425 131.874 407.055 131.76 406.74 131.548C406.425 131.337 406.179 131.038 406.032 130.689C405.885 130.339 405.843 129.954 405.912 129.582C405.981 129.209 406.157 128.864 406.419 128.59H406.403ZM394.718 130.93L399.698 109.017C399.812 108.518 400.119 108.084 400.553 107.811C400.987 107.539 401.511 107.45 402.01 107.563C402.509 107.677 402.943 107.985 403.216 108.418C403.488 108.852 403.577 109.376 403.464 109.875L398.459 131.789C398.361 132.218 398.121 132.601 397.776 132.875C397.432 133.149 397.004 133.297 396.564 133.295C396.418 133.303 396.272 133.303 396.127 133.295C395.628 133.179 395.195 132.871 394.924 132.437C394.652 132.002 394.563 131.478 394.677 130.979C394.677 130.979 394.693 130.947 394.702 130.93H394.718Z" fill="#F3EFEC"/>
</g>
<defs>
<clipPath id="clip0">
<path d="M0 36.2215C0 16.2169 16.2169 0 36.2215 0H530.779C550.783 0 567 16.2169 567 36.2215V368.778C567 388.783 550.783 405 530.779 405H36.2215C16.2169 405 0 388.783 0 368.779V36.2215Z" fill="white"/>
</clipPath>
</defs>
</svg>
